<?xml version="1.0" standalone="no"?>
<!DOCTYPE svg PUBLIC "-//W3C//DTD SVG 20010904//EN""http://www.w3.org/TR/2001/REC-SVG-20010904/DTD/svg10.dtd">
<svg version="1.0" xmlns="http://www.w3.org/2000/svg"
 width="512.000000pt" height="512.000000pt" viewBox="0 0 512.000000 512.000000"
 preserveAspectRatio="xMidYMid meet">

<g transform="translate(0.000000,512.000000) scale(0.100000,-0.100000)"
fill="#000000" stroke="none">
<path d="M1309 4771 c-23 -24 -29 -38 -29 -73 0 -89 43 -198 105 -267 48 -53
75 -116 75 -179 0 -67 -15 -103 -82 -191 -59 -78 -86 -141 -95 -222 -6 -68 7
-104 47 -124 59 -30 130 11 130 75 0 53 29 122 76 178 141 171 144 385 7 558
-55 68 -71 101 -79 165 -13 101 -93 142 -155 80z"/>
<path d="M1858 4769 c-29 -29 -30 -33 -26 -99 6 -80 45 -171 103 -240 102
-121 102 -229 0 -356 -64 -79 -95 -153 -102 -240 -6 -71 4 -97 48 -120 58 -29
129 14 129 79 0 53 27 119 70 170 88 107 115 185 108 316 -5 103 -26 154 -102
255 -53 70 -76 123 -76 179 0 18 -11 39 -29 58 -40 40 -82 39 -123 -2z"/>
<path d="M2410 4773 c-32 -26 -32 -28 -27 -97 6 -94 36 -168 97 -242 107 -130
107 -231 -1 -366 -62 -78 -91 -149 -97 -232 -4 -61 -1 -75 17 -98 28 -34 71
-44 110 -24 38 20 40 24 52 97 12 72 25 100 75 160 63 74 97 161 102 254 7
128 -21 207 -115 322 -43 54 -63 104 -63 161 0 24 -9 42 -29 63 -38 37 -79 38
-121 2z"/>
<path d="M984 3243 c-12 -2 -32 -15 -45 -29 l-24 -26 0 -801 c0 -733 2 -808
18 -871 85 -333 323 -566 643 -631 69 -14 139 -16 470 -13 367 4 393 5 462 26
118 36 278 126 335 189 17 19 16 21 -23 48 -60 42 -247 240 -312 330 -113 160
-133 222 -101 317 l19 57 -44 103 c-83 196 -112 364 -80 472 18 59 84 121 149
140 164 49 277 -7 447 -222 54 -68 70 -82 87 -77 11 4 44 9 73 12 l52 5 0 450
c0 505 1 498 -70 518 -34 10 -2009 12 -2056 3z"/>
<path d="M4755 3236 c-16 -7 -39 -23 -49 -35 -28 -31 -46 -129 -46 -250 l0
-104 47 7 c26 3 91 9 145 13 l99 6 -7 31 c-26 125 -93 284 -135 323 -22 19
-27 20 -54 9z"/>
<path d="M340 2955 c-217 -62 -323 -269 -337 -665 -14 -391 80 -636 283 -737
66 -32 87 -37 162 -41 84 -4 268 20 284 36 5 5 5 49 2 99 l-7 91 -40 -14 c-23
-8 -83 -20 -134 -26 -117 -15 -180 1 -242 63 -92 92 -124 216 -125 474 0 325
44 462 168 528 70 37 236 28 361 -19 14 -6 15 6 13 92 l-3 98 -50 13 c-80 22
-270 26 -335 8z"/>
<path d="M4748 2675 c-257 -31 -268 -36 -302 -125 -10 -25 -31 -69 -48 -99
-19 -35 -26 -56 -19 -60 6 -4 48 -39 93 -79 145 -125 291 -300 399 -476 28
-47 56 -83 61 -80 5 3 28 45 52 92 101 202 142 402 134 664 -3 99 -9 152 -18
163 -16 19 -193 19 -352 0z"/>
<path d="M2503 2380 c-12 -5 -25 -21 -29 -35 -14 -56 18 -202 72 -322 l23 -54
98 73 c54 40 109 80 123 89 l24 16 -78 95 c-43 52 -91 105 -108 118 -34 25
-92 34 -125 20z"/>
<path d="M3810 2290 l-225 -87 -27 -49 c-64 -115 -112 -310 -129 -525 -16
-200 6 -481 52 -681 l11 -47 68 -15 c80 -19 235 -21 346 -5 369 51 783 276
943 512 l33 48 -72 132 c-210 387 -475 674 -721 780 l-54 23 -225 -86z"/>
<path d="M2978 2037 c-100 -63 -260 -180 -340 -250 -74 -63 -74 -78 -4 -182
103 -150 241 -291 366 -371 69 -44 232 -123 255 -124 7 0 6 37 -3 113 -24 203
-6 514 44 745 6 29 4 34 -17 39 -13 4 -58 24 -100 45 -42 21 -85 38 -96 38
-11 0 -58 -24 -105 -53z"/>
<path d="M383 683 c-9 -3 -13 -35 -13 -111 0 -123 12 -154 77 -196 92 -60 -56
-56 2318 -54 l2170 3 50 23 c108 50 135 96 135 230 0 95 -1 100 -22 106 -28 7
-4698 7 -4715 -1z"/>
</g>
</svg>
