<?xml version="1.0" standalone="no"?>
<!DOCTYPE svg PUBLIC "-//W3C//DTD SVG 20010904//EN""http://www.w3.org/TR/2001/REC-SVG-20010904/DTD/svg10.dtd">
<svg version="1.0" xmlns="http://www.w3.org/2000/svg"
 width="512.000000pt" height="512.000000pt" viewBox="0 0 512.000000 512.000000"
 preserveAspectRatio="xMidYMid meet">

<g transform="translate(0.000000,512.000000) scale(0.100000,-0.100000)"
fill="#000000" stroke="none">
<path d="M3795 4713 c-430 -68 -787 -371 -925 -783 -192 -571 104 -1206 667
-1431 160 -64 220 -74 433 -73 168 0 206 3 273 22 199 55 362 144 505 277 383
357 480 915 239 1379 -120 231 -342 435 -578 531 -158 64 -226 77 -414 80 -93
2 -183 1 -200 -2z m390 -713 l220 220 105 -105 105 -105 -220 -220 -220 -220
220 -220 220 -220 -105 -105 -105 -105 -220 220 -220 220 -220 -220 -220 -220
-105 105 -105 105 220 220 220 220 -220 220 -220 220 105 105 105 105 220
-220 220 -220 220 220z"/>
<path d="M0 2365 l0 -1355 300 0 300 0 0 -305 c0 -168 3 -305 6 -305 3 0 239
137 524 305 l520 305 1130 0 1130 0 0 554 0 553 -83 7 c-279 22 -572 144 -790
330 l-66 56 -1186 0 -1185 0 0 150 0 150 1061 0 c583 0 1059 3 1057 8 -2 4
-20 40 -41 79 -116 225 -176 489 -165 725 l5 98 -1259 0 -1258 0 0 -1355z
m2110 -305 l0 -150 -755 0 -755 0 0 150 0 150 755 0 755 0 0 -150z m600 0 l0
-150 -150 0 -150 0 0 150 0 150 150 0 150 0 0 -150z"/>
</g>
</svg>
