<?xml version="1.0" standalone="no"?>
<!DOCTYPE svg PUBLIC "-//W3C//DTD SVG 20010904//EN" "http://www.w3.org/TR/2001/REC-SVG-20010904/DTD/svg10.dtd">
<svg version="1.0" xmlns="http://www.w3.org/2000/svg"
 width="512.000000pt" height="512.000000pt" viewBox="0 0 512.000000 512.000000"
 preserveAspectRatio="xMidYMid meet">

<g transform="translate(0.000000,512.000000) scale(0.100000,-0.100000)"
fill="#000000" stroke="none">
<path d="M434 5083 c-36 -88 -94 -277 -116 -379 -20 -93 -23 -138 -23 -309 1
-226 15 -306 82 -465 78 -184 95 -204 774 -885 l629 -630 -836 -835 c-459
-459 -848 -855 -864 -879 -93 -139 -100 -326 -17 -471 122 -212 392 -284 615
-163 32 18 334 313 965 942 l917 916 933 -931 c1012 -1011 951 -956 1094 -985
48 -10 81 -10 137 -2 309 44 479 361 344 643 -28 60 -105 140 -952 988 l-921
923 73 70 c99 93 166 124 324 148 139 22 211 45 307 97 56 31 157 127 639 608
l572 571 -105 105 -105 105 -405 -405 -405 -405 -105 105 -105 105 405 405
405 405 -107 108 -108 107 -405 -405 -405 -405 -105 105 -105 105 405 405 405
405 -108 107 -107 108 -563 -565 c-604 -607 -612 -617 -670 -777 -14 -38 -32
-121 -41 -184 -20 -143 -57 -224 -150 -324 l-65 -70 -963 963 -963 962 -92 0
-93 0 -16 -37z m2156 -2698 l-175 -175 -836 836 c-899 899 -888 887 -942 1044
-50 146 -60 361 -26 543 l13 68 1070 -1070 1071 -1071 -175 -175z m970 1170
l314 -314 -24 -26 c-35 -37 -122 -93 -172 -111 -24 -8 -90 -22 -148 -30 -194
-29 -310 -83 -459 -215 l-93 -82 -103 103 -104 104 78 81 c135 143 196 274
224 477 17 126 53 213 117 282 24 25 45 46 49 46 3 0 148 -142 321 -315z m332
-2122 c511 -512 912 -920 918 -936 15 -41 13 -65 -10 -112 -33 -69 -114 -101
-187 -75 -16 6 -424 407 -935 918 l-908 907 102 102 c57 57 105 103 108 103 3
0 413 -408 912 -907z m-1792 662 l105 -105 -805 -806 c-443 -443 -822 -819
-843 -836 -67 -54 -143 -55 -207 -2 -41 35 -57 91 -41 146 11 38 116 147 844
876 458 457 834 832 837 832 3 0 52 -47 110 -105z"/>
</g>
</svg>
