<?xml version="1.0" standalone="no"?>
<!DOCTYPE svg PUBLIC "-//W3C//DTD SVG 20010904//EN"
 "http://www.w3.org/TR/2001/REC-SVG-20010904/DTD/svg10.dtd">
<svg version="1.0" xmlns="http://www.w3.org/2000/svg"
 width="512.000000pt" height="512.000000pt" viewBox="0 0 512.000000 512.000000"
 preserveAspectRatio="xMidYMid meet">

<g transform="translate(0.000000,512.000000) scale(0.100000,-0.100000)"
fill="#000000" stroke="none">
<path d="M1012 5100 c-109 -29 -187 -74 -272 -160 -87 -86 -131 -163 -160
-276 -20 -76 -20 -118 -20 -2104 0 -1986 0 -2028 20 -2104 29 -113 73 -190
160 -276 86 -87 163 -131 276 -160 75 -19 116 -20 1544 -20 1428 0 1469 1
1544 20 113 29 190 73 276 160 87 86 131 163 160 276 20 76 20 118 20 2104 0
1986 0 2028 -20 2104 -29 113 -73 190 -160 276 -86 87 -163 131 -276 160 -75
19 -115 20 -1548 19 -1415 0 -1474 -1 -1544 -19z m348 -580 l0 -200 200 0 200
0 0 200 0 200 200 0 200 0 0 -200 0 -200 200 0 200 0 0 200 0 201 733 -3 732
-3 38 -24 c21 -13 50 -42 65 -64 l27 -40 3 -334 3 -333 -1600 0 -1601 0 0 313
c0 189 4 327 11 350 13 47 77 113 121 126 18 5 86 10 151 10 l117 1 0 -200z
m2798 -2492 l-3 -1493 -24 -38 c-13 -21 -42 -50 -64 -65 l-41 -27 -1466 0
-1466 0 -41 27 c-22 15 -51 44 -64 65 l-24 38 -3 1493 -2 1492 1600 0 1600 0
-2 -1492z"/>
<path d="M2440 3155 c-8 -2 -49 -9 -90 -15 -358 -58 -694 -309 -862 -645 -89
-177 -122 -320 -123 -530 0 -163 11 -239 56 -377 97 -300 319 -557 607 -702
85 -43 216 -87 317 -107 103 -21 349 -18 455 5 423 91 768 399 899 804 44 136
56 215 56 372 0 83 -6 175 -14 215 -95 479 -451 849 -921 956 -78 18 -338 35
-380 24z m262 -409 c274 -53 507 -246 603 -500 14 -37 25 -71 25 -76 0 -6
-106 -10 -285 -10 l-285 0 0 -200 0 -200 285 0 c179 0 285 -4 285 -10 0 -23
-53 -147 -87 -204 -20 -33 -69 -94 -107 -135 -311 -325 -817 -334 -1136 -19
-160 158 -235 339 -235 568 0 175 36 297 125 434 176 270 503 411 812 352z"/>
</g>
</svg>
