<?xml version="1.0" standalone="no"?>
<!DOCTYPE svg PUBLIC "-//W3C//DTD SVG 20010904//EN"
 "http://www.w3.org/TR/2001/REC-SVG-20010904/DTD/svg10.dtd">
<svg version="1.0" xmlns="http://www.w3.org/2000/svg"
 width="512.000000pt" height="512.000000pt" viewBox="0 0 512.000000 512.000000"
 preserveAspectRatio="xMidYMid meet">

<g transform="translate(0.000000,512.000000) scale(0.100000,-0.100000)"
fill="#000000" stroke="none">
<path d="M3481 4615 c-129 -29 -225 -69 -341 -142 -62 -39 -643 -611 -667
-657 -35 -67 -9 -159 57 -203 37 -25 115 -31 153 -12 12 6 153 140 312 298
160 158 313 302 340 319 198 123 467 128 670 12 306 -175 403 -601 206 -903
-26 -41 -212 -234 -543 -563 -480 -477 -507 -502 -584 -542 -113 -58 -194 -75
-324 -69 -165 7 -281 54 -413 167 -62 53 -103 67 -164 55 -49 -9 -109 -69
-118 -118 -14 -71 1 -106 74 -177 123 -118 315 -212 493 -240 107 -17 300 -8
403 19 103 28 242 96 325 159 99 76 1072 1057 1113 1122 56 89 95 173 124 267
25 82 27 100 27 273 0 173 -2 191 -27 273 -99 320 -327 548 -644 643 -76 23
-110 27 -248 30 -114 3 -178 -1 -224 -11z"/>
<path d="M2130 3271 c-141 -31 -270 -91 -379 -176 -79 -61 -1062 -1051 -1098
-1105 -50 -74 -101 -184 -130 -277 -25 -82 -27 -100 -27 -273 0 -174 2 -191
28 -275 31 -103 98 -235 158 -313 135 -174 343 -302 567 -347 117 -24 344 -16
451 15 89 25 219 85 287 131 60 40 639 613 660 653 35 67 9 159 -57 203 -37
25 -115 31 -153 12 -12 -6 -155 -143 -317 -304 -235 -232 -308 -299 -360 -328
-247 -135 -553 -99 -759 88 -59 53 -134 170 -160 248 -60 181 -42 380 50 545
24 43 158 183 548 573 494 494 519 518 597 557 101 51 184 72 295 72 154 0
295 -50 412 -147 77 -62 115 -83 155 -83 103 0 177 92 157 197 -13 73 -184
211 -344 278 -127 53 -193 67 -351 71 -116 3 -162 0 -230 -15z"/>
</g>
</svg>
