<?xml version="1.0" standalone="no"?>
<!DOCTYPE svg PUBLIC "-//W3C//DTD SVG 20010904//EN"
 "http://www.w3.org/TR/2001/REC-SVG-20010904/DTD/svg10.dtd">
<svg version="1.0" xmlns="http://www.w3.org/2000/svg"
 width="512.000000pt" height="512.000000pt" viewBox="0 0 512.000000 512.000000"
 preserveAspectRatio="xMidYMid meet">

<g transform="translate(0.000000,512.000000) scale(0.100000,-0.100000)"
fill="#000000" stroke="none">
<path d="M3170 4204 l-1085 -433 -595 -3 c-588 -3 -596 -4 -654 -26 -33 -12
-80 -34 -105 -49 -59 -34 -154 -124 -188 -179 -23 -36 -38 -47 -88 -65 -185
-67 -311 -172 -384 -319 -93 -189 -94 -379 -2 -565 67 -135 177 -233 334 -297
76 -32 80 -35 108 -89 35 -71 127 -171 196 -215 36 -24 54 -43 62 -66 5 -18
74 -265 151 -548 88 -319 154 -540 173 -580 21 -42 55 -88 97 -130 109 -109
232 -160 386 -160 310 0 552 263 532 577 -4 56 -33 181 -107 448 -55 204 -101
376 -101 383 0 9 25 12 89 12 l88 0 939 -381 c516 -209 1017 -412 1112 -451
194 -78 217 -81 268 -27 l29 30 3 538 2 537 86 12 c271 40 485 219 572 479 22
68 26 95 26 208 0 114 -4 140 -27 210 -86 260 -299 437 -571 477 l-86 12 0
493 c0 536 0 538 -55 581 -58 46 -42 51 -1205 -414z m1040 -1388 l0 -1545 -27
10 c-16 6 -462 184 -993 397 l-965 387 0 754 0 753 980 393 c539 216 986 394
993 394 9 1 12 -314 12 -1543z m-2210 19 l0 -715 -534 0 c-455 0 -540 2 -577
15 -101 36 -168 109 -195 214 -13 51 -15 130 -12 503 l3 443 26 55 c33 71 70
114 125 146 89 52 92 53 647 53 l517 1 0 -715z m2511 475 c112 -21 222 -90
291 -182 218 -290 43 -704 -319 -753 l-53 -7 0 476 c0 395 2 476 14 476 7 0
37 -5 67 -10z m-4056 -818 c-10 -11 -78 35 -122 81 -24 26 -56 73 -71 105 -24
51 -27 69 -27 167 0 98 3 116 26 166 32 68 88 132 149 171 l45 29 3 -357 c1
-196 0 -359 -3 -362z m1215 -596 c0 -3 48 -182 107 -398 95 -350 106 -402 107
-478 1 -74 -3 -92 -27 -137 -36 -70 -88 -120 -156 -151 -153 -71 -346 4 -419
162 -11 22 -65 212 -122 421 -56 209 -115 426 -131 483 l-27 102 334 0 c184 0
334 -2 334 -4z"/>
</g>
</svg>
