<?xml version="1.0" standalone="no"?>
<!DOCTYPE svg PUBLIC "-//W3C//DTD SVG 20010904//EN"
 "http://www.w3.org/TR/2001/REC-SVG-20010904/DTD/svg10.dtd">
<svg version="1.0" xmlns="http://www.w3.org/2000/svg"
 width="512.000000pt" height="512.000000pt" viewBox="0 0 512.000000 512.000000"
 preserveAspectRatio="xMidYMid meet">

<g transform="translate(0.000000,512.000000) scale(0.100000,-0.100000)"
fill="#000000" stroke="none">
<path d="M3725 5106 c-393 -65 -720 -296 -898 -635 -56 -106 -101 -237 -122
-355 -29 -169 -15 -409 35 -567 l20 -64 -188 -188 -187 -187 221 -221 221
-221 67 21 c143 44 286 17 400 -77 l29 -23 87 86 87 87 64 -20 c161 -49 392
-61 562 -28 474 92 846 448 958 920 26 110 36 318 21 426 -9 64 -15 79 -42
103 -33 29 -84 36 -123 16 -12 -6 -97 -85 -188 -175 -144 -142 -176 -168 -240
-198 -305 -144 -662 20 -749 343 -17 66 -15 209 5 277 33 117 71 169 250 353
166 170 170 174 170 216 0 49 -22 80 -73 102 -47 20 -288 26 -387 9z"/>
<path d="M406 4795 c-54 -19 -350 -312 -378 -374 -22 -48 -19 -95 11 -147 51
-86 522 -711 549 -726 32 -19 106 -24 145 -9 13 5 48 32 78 60 l54 50 822
-821 822 -822 -64 -68 c-45 -47 -68 -80 -75 -110 -25 -92 -64 -48 818 -930
848 -847 835 -836 961 -874 118 -36 265 -23 381 33 69 33 188 150 222 218 56
111 72 253 42 369 -37 142 -16 119 -868 974 -534 535 -804 799 -832 812 -76
37 -133 21 -222 -64 l-58 -55 -822 822 -823 823 32 29 c109 102 119 221 24
297 -60 48 -671 495 -690 505 -37 19 -89 22 -129 8z"/>
<path d="M903 1628 c-707 -709 -805 -810 -832 -865 -126 -253 -52 -533 180
-683 77 -49 164 -74 269 -74 95 -1 156 13 245 57 52 25 152 120 759 727 l699
698 -25 31 c-40 46 -77 130 -90 200 -13 70 0 178 28 233 l16 31 -224 224 -223
223 -802 -802z"/>
</g>
</svg>
