<?xml version="1.0" standalone="no"?>
<!DOCTYPE svg PUBLIC "-//W3C//DTD SVG 20010904//EN"
 "http://www.w3.org/TR/2001/REC-SVG-20010904/DTD/svg10.dtd">
<svg version="1.0" xmlns="http://www.w3.org/2000/svg"
 width="512.000000pt" height="512.000000pt" viewBox="0 0 512.000000 512.000000"
 preserveAspectRatio="xMidYMid meet">

<g transform="translate(0.000000,512.000000) scale(0.100000,-0.100000)"
fill="#000000" stroke="none">
<path d="M3766 5109 c-274 -38 -518 -159 -707 -352 -166 -170 -272 -369 -325
-612 -23 -108 -24 -351 -1 -455 9 -41 17 -78 17 -83 0 -12 -282 -297 -294
-297 -6 0 -176 165 -378 368 l-366 367 -53 162 -53 162 -278 278 -278 278
-425 -425 -425 -425 282 -282 283 -283 155 -51 155 -51 368 -367 c202 -201
367 -370 367 -376 0 -5 -66 -74 -146 -153 -100 -97 -152 -141 -163 -138 -135
42 -416 45 -566 6 -394 -102 -722 -393 -856 -760 -60 -166 -73 -239 -73 -415
1 -204 13 -261 134 -594 l13 -33 338 338 339 338 177 -35 178 -34 36 -177 36
-176 -338 -338 c-259 -259 -335 -340 -324 -347 37 -20 308 -107 385 -124 101
-21 331 -23 430 -4 256 48 472 162 650 341 168 169 274 368 328 614 23 107 22
370 -1 471 l-16 70 149 150 150 150 140 -140 140 -140 -108 -108 -107 -107
585 -584 c626 -624 632 -629 790 -687 124 -45 244 -57 369 -36 561 92 825 722
496 1182 -24 33 -298 314 -609 625 l-566 565 -108 -108 -107 -107 -140 140
-140 140 150 150 150 150 70 -15 c288 -60 617 -2 871 154 278 171 470 444 547
775 28 123 30 362 3 486 -15 69 -71 246 -118 369 -8 24 -33 1 -446 -411 l-437
-437 -140 72 -140 72 -72 140 -72 140 437 437 c412 413 435 438 411 446 -121
46 -311 105 -375 118 -100 19 -288 26 -378 13z m-131 -619 l-330 -330 143
-285 142 -285 285 -142 285 -143 330 330 330 330 0 -45 c-1 -124 -36 -274 -91
-389 -137 -289 -389 -469 -715 -512 -118 -16 -255 -1 -393 43 l-102 32 -215
-215 -214 -214 -212 213 -213 212 216 217 216 218 -19 50 c-53 136 -74 291
-59 429 52 465 424 803 896 815 l50 1 -330 -330z m-2434 -147 l147 -148 51
-155 51 -155 963 -962 962 -963 -108 -107 -107 -108 -967 965 -968 966 -152
49 -153 50 -147 148 -148 147 210 210 c115 116 212 210 215 210 3 0 71 -66
151 -147z m1044 -2103 l210 -210 -215 -215 -214 -214 27 -80 c82 -245 71 -481
-33 -700 -147 -307 -424 -491 -775 -517 l-90 -6 214 215 214 215 -69 348 c-38
191 -74 352 -80 358 -6 6 -166 42 -357 80 l-346 69 -208 -212 c-168 -172 -209
-208 -214 -194 -11 30 9 202 32 278 96 317 333 545 649 624 175 44 319 38 508
-21 l103 -32 212 212 c117 117 214 212 217 212 3 0 100 -95 215 -210z m2032
-762 c517 -518 512 -512 535 -655 29 -170 -61 -363 -212 -455 -94 -56 -211
-77 -318 -54 -139 29 -146 35 -652 541 l-465 465 105 105 105 105 442 -442
443 -443 107 108 108 107 -443 443 -442 442 102 103 c57 56 105 102 108 102 3
0 218 -213 477 -472z"/>
</g>
</svg>
