<?xml version="1.0" encoding="UTF-8" standalone="no"?>
<svg
   xmlns:dc="http://purl.org/dc/elements/1.1/"
   xmlns:cc="http://creativecommons.org/ns#"
   xmlns:rdf="http://www.w3.org/1999/02/22-rdf-syntax-ns#"
   xmlns:svg="http://www.w3.org/2000/svg"
   xmlns="http://www.w3.org/2000/svg"
   viewBox="0 0 4000 2666.6667"
   height="2666.6667"
   width="4000"
   xml:space="preserve"
   id="svg2"
   version="1.1"><metadata
     id="metadata8"><rdf:RDF><cc:Work
         rdf:about=""><dc:format>image/svg+xml</dc:format><dc:type
           rdf:resource="http://purl.org/dc/dcmitype/StillImage" /></cc:Work></rdf:RDF></metadata><defs
     id="defs6" /><g
     transform="matrix(1.3333333,0,0,-1.3333333,0,2666.6667)"
     id="g10"><g
       transform="scale(0.1)"
       id="g12"><g
         transform="scale(1.84049)"
         id="g14"><path
           id="path16"
           style="fill:#f7f7f8;fill-opacity:1;fill-rule:nonzero;stroke:none"
           d="M 16300,0 H 0 V 10866.7 H 16300 V 0" /></g><path
         id="path18"
         style="fill:#895737;fill-opacity:1;fill-rule:evenodd;stroke:none"
         d="m 10555.9,11839.4 -340.7,-9.1 -315.34,-963.6 322.64,-31.6 333.4,1004.3 v 0" /><g
         transform="scale(1.07584)"
         id="g20"><path
           id="path22"
           style="fill:#f7a28f;fill-opacity:1;fill-rule:evenodd;stroke:none"
           d="m 11987,15282.2 c 29.8,50.9 44.5,91.3 83.9,63.4 76.8,-54.3 -30.6,-258.7 -110,-304.8 -3.4,-2 -9.8,-5.7 -17.9,-10.1 -28.4,-168.7 -117.4,-301.9 -309.7,-368.8 2.6,-94.2 -15.9,-158.3 65.4,-237.3 111.4,-108.2 933.3,-426.2 815.4,-435.7 -313.9,-808.9 -2160.4,-933.4 -2259.7,10.2 50,62.7 854.4,407.3 903.5,774.1 -72.2,49.9 -131.6,137.4 -179.3,236.7 -23.9,7.5 -51.8,23.4 -60.7,28.4 -81.9,46 -200.6,250.4 -126.9,304.7 23.6,17.3 53.8,-4.1 81,-35 -11.1,41.3 -20.2,80.4 -27.7,115.3 -96,451 1071.4,876.7 1142.7,-141.1 v 0" /></g><path
         id="path24"
         style="fill:#00203f;fill-opacity:1;fill-rule:evenodd;stroke:none"
         d="m 14063.8,10629.8 c 304.4,0 554.3,-116.9 558.3,-261 4,-144.1 -239.4,-261 -543.8,-261 -304.3,0 -554.3,116.9 -558.3,261 -4,144.1 239.5,261 543.8,261 v 0" /><path
         id="path26"
         style="fill:#436ea7;fill-opacity:1;fill-rule:evenodd;stroke:none"
         d="m 13672,15080.9 c 614.3,-1101.3 2517.4,-4784.7 218.2,-4784.7 -468.1,0 -1147.3,2215.1 -1040.9,2613.3 129,482.9 -208.6,522.3 291.3,1433.9 123.3,225 281.3,661.6 531.4,737.5 v 0" /><path
         id="path28"
         style="fill:#d55147;fill-opacity:1;fill-rule:evenodd;stroke:none"
         d="m 12601.7,11366.1 299.6,-1822.3 1999.7,312.1 -381.2,1880.4 -1918.1,-370.2 v 0" /><path
         id="path30"
         style="fill:#703129;fill-opacity:1;fill-rule:evenodd;stroke:none"
         d="m 14519.8,11736.3 381.2,-1880.4 192,181.3 -377.1,1670.9 -196.1,28.2 v 0" /><path
         id="path32"
         style="fill:#f5988a;fill-opacity:1;fill-rule:evenodd;stroke:none"
         d="m 11480,3209.6 6.6,40.9 -70.4,708.5 -345.4,-58.1 72.3,-532.8 336.9,-158.5 v 0" /><path
         id="path34"
         style="fill:#f5988a;fill-opacity:1;fill-rule:evenodd;stroke:none"
         d="m 12822.5,3196.1 -8.9,40.9 30.9,708.6 348.7,-58.2 -42.7,-532.8 -328,-158.5 v 0" /><path
         id="path36"
         style="fill:#60c6d0;fill-opacity:1;fill-rule:evenodd;stroke:none"
         d="m 13806.4,3590.8 -13.6,-25.4 c -317.3,-60.9 -1121.5,-94.7 -1147.5,117 l -396.7,5812 c -246.2,-1861.9 -352.3,-3737 -551.8,-5603.4 -7.3,-67.7 -14.5,-135.8 -23.7,-203.3 -6.2,-45.7 -8.7,-124.1 -74.6,-124.1 -160.9,0 -909.6,-141.6 -965,111.6 -185.2,845 -140.5,3295.3 -162.3,4204 -12.1,505.7 -15.8,1011.8 -5.9,1516.9 8.7,439.5 26.8,881.5 67.8,1318.5 l -0.5,-0.3 11.6,112.4 c 34.6,332.6 85,712 193.4,1027.2 58.4,169.7 171.4,428.2 382.6,437.9 138.2,6.4 281,4.7 419.5,5.1 230.3,0.7 460.7,0.1 691,-0.8 260.7,-1.1 521.4,-2.7 782.2,-5.5 86.2,-0.9 172.4,-1.8 258.6,-3.4 43.1,-0.9 132.6,9.4 156.3,-41 882.2,-1878.4 395.6,-8623.7 378.6,-8655.4 v 0" /><path
         id="path38"
         style="fill:#41809f;fill-opacity:1;fill-rule:evenodd;stroke:none"
         d="m 10560.3,11731.5 h 3161.6 l 17.4,-623.9 h -3161.7 l -17.3,623.9 v 0" /><path
         id="path40"
         style="fill:#00203f;fill-opacity:1;fill-rule:evenodd;stroke:none"
         d="m 13811.5,11342.7 c 829.1,105.4 -70,3616.2 -139.5,3738.2 l -993.3,370.3 c 37.9,-123.8 -150.6,-738 -488.9,-730.5 v 0 c -337.9,-7.5 -560.6,606.7 -529.5,730.5 l -972.8,-370.3 c -62.7,-122 -969.93,-3746 -134.9,-3851.3 44.4,3.1 3214.3,116.2 3258.9,113.1 v 0" /><path
         id="path42"
         style="fill:#41809f;fill-opacity:1;fill-rule:nonzero;stroke:none"
         d="m 12266.6,9489.8 c -2.5,-9.9 -12.6,-15.9 -22.6,-13.4 -9.9,2.6 -15.9,12.7 -13.4,22.6 l 245.5,952.6 c 2.6,10 12.7,16 22.6,13.4 10,-2.5 16,-12.6 13.4,-22.6 l -245.5,-952.6 v 0" /><path
         id="path44"
         style="fill:#39577b;fill-opacity:1;fill-rule:evenodd;stroke:none"
         d="m 13269.6,13461.2 h -589.3 l -31.6,1135.9 h 833.3 l 31.6,-1135.9 h -244 v 0" /><path
         id="path46"
         style="fill:#d6effd;fill-opacity:1;fill-rule:evenodd;stroke:none"
         d="m 13449,13524 h -177.1 l -28.1,1010.3 h 177.1 L 13449,13524 Z m -438.4,184.3 -17.8,641.8 h -90.1 l 17.8,-641.8 h 90.1 z M 13205,13524 h -463.6 l -28.1,1010.3 h 463.6 L 13205,13524 v 0" /><path
         id="path48"
         style="fill:#f5988a;fill-opacity:1;fill-rule:evenodd;stroke:none"
         d="m 14753.6,9866.6 c 23,-73 -267.2,-223.6 -397.5,-223.6 -153.4,0 -263.8,58.5 -322.6,207 -20.8,52.5 -49.2,153.7 1.2,189.7 71.2,51.1 78.9,-39.5 73.8,35.7 -3.5,52.9 89.3,79.8 103.6,19.1 10.2,-2.1 -12.6,69.2 52.3,88.1 172.5,50 141.5,-420 297.8,-365.2 5.7,32.2 -61.7,214.4 -66.4,283.9 -9.4,140.6 307.1,-391.5 257.8,-234.7 v 0" /><path
         id="path50"
         style="fill:#895737;fill-opacity:1;fill-rule:evenodd;stroke:none"
         d="m 13175.4,15266 -79.8,29.7 -1708.9,-4644.1 430.3,-75.9 1358.4,4690.3 v 0" /><path
         id="path52"
         style="fill:#ec8059;fill-opacity:1;fill-rule:evenodd;stroke:none"
         d="m 12534.5,15780.8 c -203.2,-72.6 -514.1,66.7 -529.9,115.7 15.2,-42.9 43.4,-644.7 513.6,-251.3 -5.2,39 -1.4,80.1 -2.7,128.6 6.4,2.3 12.7,4.6 19,7 v 0" /><g
         transform="scale(1.01852)"
         id="g54"><path
           id="path56"
           style="fill:#ec8059;fill-opacity:1;fill-rule:nonzero;stroke:none"
           d="m 12111.4,16273.6 c -0.4,14.6 11.1,26.4 25.6,26.4 14.6,0 26.7,-11.8 27.2,-26.4 0.3,-12.9 4.8,-44.6 10.2,-77.7 6.1,-37.2 13.4,-75.4 17.4,-90.3 3,-11.2 6.7,-33 6,-51.4 -0.6,-17.1 -4.9,-33.3 -16.1,-43.1 -19.9,-17.4 -38.2,-26.4 -59.1,-28.7 -19.9,-2.1 -40,2.2 -64.5,11.1 -13.9,5 -21.3,20.2 -16.7,33.8 4.6,13.7 19.5,20.7 33.4,15.7 17.1,-6.3 30.1,-9.4 40.8,-8.2 9.6,1.1 19.1,6.2 30.7,16.3 1.1,1 -1.3,1.9 -1.1,6.2 0.3,13 -2.1,28.2 -4.2,35.9 -4.6,16.8 -12.2,57.1 -18.6,95.7 -5.8,35.5 -10.6,70.1 -11,84.7 v 0" /></g><g
         transform="scale(1.02023)"
         id="g58"><path
           id="path60"
           style="fill:#283c52;fill-opacity:1;fill-rule:evenodd;stroke:none"
           d="m 11914.4,16300 c 17.6,0 32.3,-21.4 33.1,-47.9 0.7,-26.4 -12.9,-47.9 -30.4,-47.9 -17.6,0 -32.3,21.5 -33.1,47.9 -0.6,26.5 12.9,47.9 30.4,47.9 v 0" /></g><g
         transform="scale(1.02023)"
         id="g62"><path
           id="path64"
           style="fill:#283c52;fill-opacity:1;fill-rule:evenodd;stroke:none"
           d="m 12324,16300 c 17.6,0 32.4,-21.4 33.1,-47.9 0.8,-26.4 -12.9,-47.8 -30.3,-47.8 -17.6,0 -32.4,21.4 -33,47.8 -0.8,26.5 12.8,47.9 30.2,47.9 v 0" /></g><g
         transform="scale(1.08412)"
         id="g66"><path
           id="path68"
           style="fill:#283c52;fill-opacity:1;fill-rule:evenodd;stroke:none"
           d="m 11909.2,15730.8 c 69.4,50.4 227.1,334.9 45.3,506 -23.1,21.7 16.9,15 -51.2,-40.9 -43.9,-36.1 -249,-154.4 -221.1,-108.9 l 104.1,170 c 14.8,24.2 -340,43 -649.7,-82.9 -27.4,72.1 99.4,104.4 -82.4,34.5 -440,-169.2 -424.9,-624.4 -295.6,-989 10,-13.1 235.2,-326.9 125.7,-78.6 -152.9,346.7 149,625.4 439.1,445 67.7,-42 165.1,27.4 248.7,63.6 190,-61.1 330.7,-226.7 291.4,-555.8 -3.4,-28.9 32.9,13 34.9,17 75.6,162.4 120.2,473.5 10.8,620 v 0" /></g><path
         id="path70"
         style="fill:#d6effd;fill-opacity:1;fill-rule:evenodd;stroke:none"
         d="m 12555.9,16211.9 c -48.4,-46.3 -317.3,-127.6 -412,-25.8 -12,12.9 143.8,-297.9 374.8,-73.3 19,18.3 74.7,135.1 37.2,99.1 v 0" /><path
         id="path72"
         style="fill:#666666;fill-opacity:1;fill-rule:evenodd;stroke:none"
         d="m 12670.4,15434 c 524.8,-214.6 376.6,-722.5 450.2,-838.8 48.2,-76.1 6.2,-176.8 -86.5,-200.7 25.6,111 40.6,109 10.6,238.1 -32.2,139 -104.7,97.7 -102.4,291.3 1.9,164.5 -254.6,331.2 -263.1,350.6 -8.4,19 -13.4,161.4 -8.8,159.5 v 0" /><path
         id="path74"
         style="fill:#000000;fill-opacity:1;fill-rule:evenodd;stroke:none"
         d="m 12867.6,14836.2 c 118.1,0 218,-151.4 223.2,-338.3 5.2,-186.8 -86.3,-338.3 -204.4,-338.3 -118.1,0 -218.1,151.5 -223.3,338.3 -5.2,186.9 86.3,338.3 204.5,338.3 v 0" /><path
         id="path76"
         style="fill:#000000;fill-opacity:1;fill-rule:evenodd;stroke:none"
         d="m 11702.2,14692.9 c 139.9,87.9 354.7,33.7 479.6,-121.1 124.9,-154.7 112.7,-351.4 -27.3,-439.3 -140,-87.9 -354.7,-33.7 -479.6,121.1 -124.9,154.7 -112.7,351.4 27.3,439.3 v 0" /><path
         id="path78"
         style="fill:#30261a;fill-opacity:1;fill-rule:evenodd;stroke:none"
         d="m 12816.3,14715.8 c 60.2,0 111.5,-91.9 114.7,-205.4 3.1,-113.4 -43.1,-205.3 -103.3,-205.3 -60.2,0 -111.5,91.9 -114.7,205.3 -3.1,113.5 43.1,205.4 103.3,205.4 v 0" /><path
         id="path80"
         style="fill:#666666;fill-opacity:1;fill-rule:evenodd;stroke:none"
         d="m 11627.8,15096.7 c -87.3,-217.4 -39.1,-324.9 131.6,-452.3 17.9,5 36.9,7.7 56.5,7.7 114.6,0 210,-91.3 213.2,-204 3.3,-117.6 -82.5,-204 -201.8,-204 -114.6,0 -210,91.3 -213.2,204 -1.1,40.8 10,78.8 30.1,110.7 0.1,17.7 -0.3,32.2 -2.5,36 -129.8,225.9 -286.9,452.1 -71.9,725.3 l 6.2,-223.4 h 51.8 v 0" /><path
         id="path82"
         style="fill:#436ea7;fill-opacity:1;fill-rule:evenodd;stroke:none"
         d="m 12518.2,15645.2 c 182.6,-628.7 -272.1,-604.3 -257.3,-1135.1 61.6,193.5 964.2,533.7 819,863.7 -77.4,175.9 -655.1,593 -561.7,271.4 v 0" /><path
         id="path84"
         style="fill:#436ea7;fill-opacity:1;fill-rule:evenodd;stroke:none"
         d="m 12329.1,14603.6 c -49.6,29.4 -28.1,59.3 -29.8,119.3 -3.6,128.1 -88.2,203.6 -171.6,284.7 -237.9,231.1 -493.7,290.5 -254.7,606.6 0.5,0.6 144.1,210.8 96,179.2 -95.3,-62.3 -124.5,-66.5 -240.7,-77.7 -40.3,-3.9 -85.3,-35.4 -97.6,-73 -32.8,-100.4 -3.8,-68.2 -119.5,-111.6 -58.5,-22 -52.5,-140.8 -58,-198.5 -17.5,-184.1 106.1,-458.6 290.6,-513.6 139.1,-41.4 459.7,-108.9 519.1,-267.8 20.1,4.7 34,71.5 66.2,52.4 v 0" /><path
         id="path86"
         style="fill:#39577b;fill-opacity:1;fill-rule:nonzero;stroke:none"
         d="m 11577.7,15564.1 c 1.4,10.2 10.9,17.2 21.1,15.8 10.2,-1.5 17.2,-11 15.7,-21.2 -56.3,-381.9 192.6,-534.8 409.7,-668.1 107.4,-66 207.4,-127.4 263.4,-210.1 5.7,-8.5 3.5,-20 -5,-25.8 -8.5,-5.7 -20,-3.5 -25.8,5 -51.4,75.9 -148.1,135.3 -252,199.1 -226.8,139.4 -487,299.2 -427.1,705.3 v 0" /><path
         id="path88"
         style="fill:#39577b;fill-opacity:1;fill-rule:nonzero;stroke:none"
         d="m 12894.9,15554.7 c 0.3,10.2 9,18.3 19.2,17.9 10.3,-0.3 18.3,-9 17.9,-19.2 -0.4,-12.3 3.7,-28.3 8.4,-46.8 12,-47.1 27.9,-109 -4.3,-196.7 -64.7,-177 -128.4,-219.8 -249.6,-301.4 -20.8,-13.9 -43.5,-29.3 -70.6,-48.3 -40.2,-28.3 -63.2,-44.8 -84.5,-62.3 -21.6,-17.8 -42.6,-37.6 -78.8,-72.4 -7.4,-7.1 -19.2,-6.9 -26.3,0.5 -7.1,7.4 -6.9,19.2 0.5,26.3 36.8,35.4 58.3,55.6 81,74.3 23,19 46.3,35.7 86.7,64.1 24.5,17.2 48.9,33.6 71.4,48.7 114.5,77.1 174.6,117.5 235.3,283.3 28.1,76.8 13.8,132.5 3,174.7 -5.4,21.2 -10,39.4 -9.3,57.3 v 0" /><path
         id="path90"
         style="fill:#39577b;fill-opacity:1;fill-rule:nonzero;stroke:none"
         d="m 12687.2,15703.8 c -6.2,8.2 -4.5,19.9 3.7,26.1 8.2,6.2 19.9,4.5 26.1,-3.7 163.6,-216.4 103.8,-330.1 39,-453.4 -23.1,-44 -46.9,-89.2 -59.8,-140.5 -2.5,-10 -12.6,-16.1 -22.6,-13.6 -10,2.5 -16.1,12.6 -13.6,22.6 14,55.6 38.9,102.9 63,148.8 59.1,112.4 113.6,216.1 -35.8,413.7 v 0" /><path
         id="path92"
         style="fill:#f5988a;fill-opacity:1;fill-rule:evenodd;stroke:none"
         d="m 11551.5,12874.4 c 61.5,-71.6 245.9,-51.6 323.7,30.3 0.6,0.6 57.1,46.1 59,46.9 0.9,7.9 158.4,162.4 225.5,162.4 74.6,0 312.3,1.6 342.6,-68.9 38.1,-89 134,-368.1 122.5,-457.9 -1.6,-12.2 -63.7,-26.7 -104.4,40.6 -47.1,77.9 18.6,-57.7 -26.7,-69.3 -1.6,-7.9 -61.7,-21.3 -61.7,24.2 0,-34.5 -68.5,-66.8 -120.7,29.3 -23.3,42.9 -151.3,44 -183.4,1 -36.1,-48.6 -156.2,-109 -229.7,-109 -111.5,0 -150,13.9 -235,18.5 -47.9,2.6 -283.7,5.8 -228.8,100.1 1.6,2.7 64.5,312.9 117.1,251.8 v 0" /><path
         id="path94"
         style="fill:#41809f;fill-opacity:1;fill-rule:evenodd;stroke:none"
         d="m 11302.6,13323.3 c 227.1,0 411.3,-242.6 411.3,-542 0,-299.3 -184.2,-541.9 -411.3,-541.9 -227.2,0 -411.3,242.6 -411.3,541.9 0,299.4 184.1,542 411.3,542 v 0" /><path
         id="path96"
         style="fill:#436ea7;fill-opacity:1;fill-rule:evenodd;stroke:none"
         d="m 10687.5,15080.9 c -255.5,-31 -1036.32,-432.7 -1604.11,-1374.8 -256.54,-425.7 -788.06,-1348.4 -126.54,-1676.8 466.02,-231.4 2472.35,-385.5 2582.85,267.6 214,1263.5 60.4,1197.9 -981.9,1158.3 -361,-13.7 483,1315 129.7,1625.7 v 0" /><path
         id="path98"
         style="fill:#e78543;fill-opacity:1;fill-rule:evenodd;stroke:none"
         d="m 9352.67,8908.8 547.19,2005.8 1917.14,-291.1 -591.5,-2018.4 -1872.83,303.7 v 0" /><path
         id="path100"
         style="fill:#895737;fill-opacity:1;fill-rule:evenodd;stroke:none"
         d="m 11817,10623.5 -129.6,-1946 -461.9,-72.4 578.2,1972.9 13.3,45.5 v 0" /><path
         id="path102"
         style="fill:#895737;fill-opacity:1;fill-rule:evenodd;stroke:none"
         d="m 11282.4,9411.4 521.3,1166.6 -578.2,-1002.1 -1354.01,158.2 28.37,1132.6 -135.93,-1278.1 1518.47,-177.2 v 0" /><path
         id="path104"
         style="fill:#e78543;fill-opacity:1;fill-rule:evenodd;stroke:none"
         d="m 12590.2,3510 c 1.2,0.2 153.9,-54.4 187.8,-58.2 94.3,-10.8 101.2,-16.1 207.4,-16.1 135.7,0 105,-5.8 227,27.6 82.6,22.7 238.8,30.9 288.1,-50.6 41.5,-68.5 -60.7,-209.2 134.5,-385.1 107.3,-96.8 83.9,-72 200.9,-146.4 41.9,-26.6 245.7,-38.5 313.7,-52.1 133.9,-26.8 279.2,31.9 349.1,-165.3 26,-73.4 17.7,-114.9 -25.1,-171.7 -73.3,-97.5 -421,-68.8 -545.4,-68.8 -129.7,0 -308.4,-5.6 -433.2,9.8 -89.2,11 -298.1,8.4 -358.3,27.4 -46.2,14.5 -356.1,-0.3 -380.4,22.7 -108.7,102.4 -85.5,297.7 -49.8,431.6 75.6,283.4 -207.9,317.9 -113.9,581 4,11.2 5.5,15.4 -2.4,14.2 v 0" /><path
         id="path106"
         style="fill:#703129;fill-opacity:1;fill-rule:evenodd;stroke:none"
         d="m 12729.3,2526 c -0.1,-0.1 -29.7,-146.6 19.1,-144.5 34.4,1.5 167.2,-22.1 243.9,-22.1 129.5,0 1488.3,-13.5 1492.9,6.3 40.8,14.1 43.7,181.8 -19.8,124.5 -60.9,-55.1 -300.6,-54.9 -388.3,-54.9 -390.9,0 -979.9,79.4 -1309.7,66.4 -0.3,0 -51.5,11 -38.1,24.3 v 0" /><path
         id="path108"
         style="fill:#895737;fill-opacity:1;fill-rule:evenodd;stroke:none"
         d="m 13573.2,3094.1 c -25.9,267.3 -109.3,282.8 71.3,543.5 96.9,139.9 58.5,269.4 -136.8,269.4 -81.3,0 -123.2,-7.5 -165.4,-76.2 -52.8,-85.9 -64.4,-208.5 -50,-312.3 18.5,-133.6 125.7,-331 258.9,-396.8 2.4,-1.2 21.3,-20.5 22,-27.6 v 0" /><path
         id="path110"
         style="fill:#895737;fill-opacity:1;fill-rule:evenodd;stroke:none"
         d="m 13510.6,3218.7 c 43.9,-51.9 -59.1,-148.2 -131,-154.5 -21.5,-1.8 -106.3,-19.1 -83.1,-51.7 66.7,-93.8 354.8,29.9 306.8,165.4 -9.5,26.9 -101.9,51.7 -92.7,40.8 v 0" /><path
         id="path112"
         style="fill:#895737;fill-opacity:1;fill-rule:evenodd;stroke:none"
         d="m 13572.5,3095.4 c 43.8,-52 -59.1,-148.3 -131.1,-154.6 -21.4,-1.8 -106.2,-19.1 -83.1,-51.7 66.8,-93.8 354.9,30 306.9,165.4 -9.6,26.9 -102,51.8 -92.7,40.9 v 0" /><path
         id="path114"
         style="fill:#895737;fill-opacity:1;fill-rule:evenodd;stroke:none"
         d="m 13662.8,2997.3 c 43.8,-51.9 -59.1,-148.2 -131.1,-154.5 -21.4,-1.9 -106.2,-19.2 -83.1,-51.7 66.8,-93.9 354.9,29.9 306.9,165.3 -9.5,26.9 -102,51.8 -92.7,40.9 v 0" /><path
         id="path116"
         style="fill:#703129;fill-opacity:1;fill-rule:evenodd;stroke:none"
         d="m 11857.5,2498.3 c 17.9,-6.2 88.1,-132.3 -68.1,-181.1 -197.2,-61.7 -635.6,-95.6 -828.8,-15.9 -81.9,33.8 -121.2,69.8 -107.9,178 8.1,65.1 673.5,38 746.9,38 88,0 177.5,8.7 257.9,-19 v 0" /><path
         id="path118"
         style="fill:#895737;fill-opacity:1;fill-rule:evenodd;stroke:none"
         d="m 11458.8,3219.6 c 88.7,93 130.9,366.6 115.2,493.5 -29.3,238 -473.6,244.1 -531.2,59.9 -77.4,-247.9 -18.1,-207 49.5,-430.3 13.3,-43.7 108.5,-283.7 137.2,-296 48.6,-20.8 72.3,-75.8 120.2,-20.6 33.4,38.4 95.2,178.9 109.1,193.5 v 0" /><path
         id="path120"
         style="fill:#e78543;fill-opacity:1;fill-rule:evenodd;stroke:none"
         d="m 11680.3,2908 c -53.6,108.5 -18.1,188.2 4.5,299.2 22.8,112.4 37.7,288.2 -135.8,249.7 -102,-22.7 -182.7,-175.9 -224.1,-265.8 -39.4,-85.7 0.2,-12.4 -55.4,72.5 -72.7,111.1 -154,222.7 -312.4,190.4 -142,-29 -136.3,-219.5 -40.8,-295.3 146.1,-116 20.3,-272.6 -46.4,-391.8 -56.3,-100.6 -133.4,-165.6 -63.5,-299.4 113.3,-217.2 910.3,-183.8 1090.3,-39.6 109,87.3 -60.8,367 -179.2,425.5 -10.2,5.1 -32,43.9 -37.2,54.6 v 0" /><path
         id="path122"
         style="fill:#895737;fill-opacity:1;fill-rule:evenodd;stroke:none"
         d="m 11553.5,2932.7 c -104.9,59 -139.2,99.8 -281.1,71 -195.5,-39.7 -224.8,-145.9 -171.4,-123.9 17,6.9 51.5,9.1 92.9,28.1 55.2,25.2 128.2,25.9 186.3,18.8 58.8,-7.2 160.2,-72.2 178.3,-48.1 14.6,19.3 18.7,40.8 -5,54.1 v 0" /><path
         id="path124"
         style="fill:#895737;fill-opacity:1;fill-rule:evenodd;stroke:none"
         d="m 11536.6,3092.2 c -104.9,59 -139.2,99.7 -281.1,70.9 -195.5,-39.6 -224.8,-145.9 -171.4,-123.9 17,7 51.5,9.2 92.9,28.1 55.2,25.3 128.2,26 186.3,18.9 58.8,-7.2 160.2,-72.2 178.3,-48.1 14.6,19.3 18.7,40.7 -5,54.1 v 0" /><path
         id="path126"
         style="fill:#895737;fill-opacity:1;fill-rule:evenodd;stroke:none"
         d="m 11568.9,2801.1 c -104.9,59.1 -139.2,99.8 -281.2,71 -195.4,-39.7 -224.8,-145.9 -171.3,-123.9 17,7 51.4,9.1 92.8,28.1 55.2,25.2 128.2,25.9 186.3,18.8 58.8,-7.2 160.2,-72.1 178.4,-48 14.5,19.3 18.6,40.7 -5,54 v 0" /><g
         transform="scale(1.16545)"
         id="g128"><path
           id="path130"
           style="fill:#703129;fill-opacity:1;fill-rule:evenodd;stroke:none"
           d="m 15935.9,13083.8 c -220.9,292.2 -774.1,105.7 -1031,-50.1 -1294.6,-784.6 -933,-1618 -705.5,-3257.81 128,-921.86 605,-560.78 1442.9,-586.44 527.6,-16.14 491.7,268.56 588.1,735.75 69.6,336.7 -39.9,1118 -146.8,1445.3 -83.5,255.6 -292.2,1307.9 -200.3,1530.8 11.6,28 56.3,177.5 52.6,182.5 v 0" /></g><g
         transform="scale(1.23958)"
         id="g132"><path
           id="path134"
           style="fill:#7e4434;fill-opacity:1;fill-rule:evenodd;stroke:none"
           d="m 16016.9,2180.17 -5.6,29.69 36.8,514.36 251.9,-42.19 -41.7,-386.82 -241.4,-115.04 v 0" /></g><g
         transform="scale(1.29795)"
         id="g136"><path
           id="path138"
           style="fill:#000000;fill-opacity:1;fill-rule:evenodd;stroke:none"
           d="m 15254.4,1986.67 c -14.4,-45.22 -4.8,-100 -11.5,-124.19 -13.6,-50.08 193.8,-37.37 198.7,-33.06 76,66.72 185.6,-21.41 261.5,-19.03 13.1,0.39 565.2,-28.89 565.2,8.71 0,24.65 31.7,83.67 -38.4,99.62 -105.7,24.04 -147.3,39.13 -267.9,41.76 -48.1,1.07 -366.8,11.09 -402.2,19.56 -80,19.11 -124.4,31.52 -207.4,31.52 -3.8,0 -62.3,-23.12 -86.3,-22.42 -1.1,0.07 -11.5,-2.01 -11.7,-2.47 v 0" /></g><g
         transform="scale(1.29555)"
         id="g140"><path
           id="path142"
           style="fill:#2e2e2e;fill-opacity:1;fill-rule:evenodd;stroke:none"
           d="m 15316.9,2229.09 c -40.6,-64.76 -64.9,-191.89 -37.5,-257.42 4.7,-11.5 410.7,-91.39 417.8,-91.85 57.7,-3.71 602.8,-9.96 602.8,16.13 0,161.47 -564.1,176.53 -609,264.83 -30.1,59.28 -96.5,107.13 -187,88.69 -61.1,-12.59 -62.2,-89.69 -109.9,-73.56 -8.1,2.78 -70.1,64.37 -77.2,53.18 v 0" /></g><g
         transform="scale(1.12755)"
         id="g144"><path
           id="path146"
           style="fill:#7e4434;fill-opacity:1;fill-rule:evenodd;stroke:none"
           d="m 16293.8,2395.81 6.2,32.64 -40.4,565.47 -277,-46.38 45.8,-425.26 265.4,-126.47 v 0" /></g><g
         transform="scale(1.13237)"
         id="g148"><path
           id="path150"
           style="fill:#000000;fill-opacity:1;fill-rule:evenodd;stroke:none"
           d="m 16271.2,2259.07 c 16.5,-51.93 5.6,-114.63 13.2,-142.44 15.6,-57.32 -222.1,-42.83 -227.8,-37.89 -87.1,76.57 -212.7,-24.55 -299.8,-21.64 -14.9,0.45 -647.8,-33.2 -647.8,9.9 0,28.34 -36.3,95.9 44.1,114.18 121.2,27.47 168.8,44.86 307.1,47.87 55.2,1.15 420.3,12.71 460.9,22.43 91.8,21.81 142.6,36.03 237.7,36.03 4.5,0 71.4,-26.41 99.1,-25.61 1.2,0 13.1,-2.3 13.3,-2.83 v 0" /></g><g
         transform="scale(1.1328)"
         id="g152"><path
           id="path154"
           style="fill:#2e2e2e;fill-opacity:1;fill-rule:evenodd;stroke:none"
           d="m 16225.8,2531.15 c 46.3,-74.06 74.2,-219.36 43,-294.4 -5.6,-13.15 -469.9,-104.52 -477.9,-104.96 -66,-4.33 -689.5,-11.39 -689.5,18.36 0,184.68 645.1,201.98 696.5,302.97 34.5,67.79 110.4,122.52 213.8,101.34 70,-14.3 71.1,-102.58 125.9,-84.04 9.1,3.18 80.1,73.53 88.2,60.73 v 0" /></g><g
         transform="scale(1.24952)"
         id="g156"><path
           id="path158"
           style="fill:#7e4434;fill-opacity:1;fill-rule:evenodd;stroke:none"
           d="m 15688.4,13466.6 c 132.1,-323.6 182.8,-637.9 -112.2,-806.1 15.3,-81 51.1,-255 132,-310.2 110.7,-75.5 591.8,-388.8 491.6,-416.2 -216.1,-626.9 -1461.9,-587.7 -1625.5,154.5 36.1,65.4 641.2,286 572.2,639.6 -15.1,77.6 -91,62.4 -139.6,131.3 l -232.8,240.9 200.4,261 c 59.2,239 531.6,551.5 713.9,105.2 v 0" /></g><g
         transform="scale(1.19547)"
         id="g160"><path
           id="path162"
           style="fill:#4c1a0f;fill-opacity:1;fill-rule:evenodd;stroke:none"
           d="m 16295.4,13241.8 c -71.4,-10.9 -180.7,3.9 -220.3,30.9 -28.1,19.1 -72.7,65.8 -43.3,12 17.3,-31.4 51.7,-66 81.7,-87.7 29.1,-21.2 109.9,-50.2 186.5,-71.8 -9.6,32 -12,67.1 -19.6,107.7 5.1,2.9 10.1,5.9 15,8.9 v 0" /></g><g
         transform="scale(1.31152)"
         id="g164"><path
           id="path166"
           style="fill:#39577b;fill-opacity:1;fill-rule:evenodd;stroke:none"
           d="m 15559,2358.48 -10.8,-20.13 c -250.9,-48.18 -544.2,-74.87 -564.8,92.57 l -313.6,4596.49 c -194.8,-1472.49 -278.7,-2955.42 -436.5,-4431.49 -5.7,-53.61 -11.5,-107.44 -18.7,-160.81 -4.9,-36.22 -6.9,-98.13 -59,-98.13 -127.3,0 -496.7,-59.7 -540.6,140.52 -146.4,668.31 -59.6,1885.6 -76.8,2604.23 -25.5,1065.33 -343.4,1649.99 -225.2,2910.64 l -0.4,-0.23 9.2,88.86 c 27.4,263.09 67.2,563.15 152.9,812.39 46.2,134.21 135.6,338.66 302.6,346.33 109.2,5.03 222.2,3.7 331.8,4.05 182.1,0.51 364.3,0.08 546.5,-0.69 206.1,-0.82 412.3,-2.09 618.6,-4.28 68.1,-0.71 136.3,-1.47 204.5,-2.75 34,-0.67 104.9,7.48 123.6,-32.39 697.7,-1485.58 -29.9,-6820.17 -43.3,-6845.18 v 0" /></g><g
         transform="scale(1.19723)"
         id="g168"><path
           id="path170"
           style="fill:#41809f;fill-opacity:1;fill-rule:nonzero;stroke:none"
           d="m 16085.2,7694.41 c -2.2,-8.36 -10.6,-13.37 -18.9,-11.19 -8.4,2.08 -13.4,10.52 -11.2,18.87 l 212.7,825.29 c 2.1,8.29 10.6,13.31 18.8,11.19 8.4,-2.12 13.4,-10.57 11.2,-18.88 l -212.6,-825.28 v 0" /></g><g
         transform="scale(1.19672)"
         id="g172"><path
           id="path174"
           style="fill:#4c1a0f;fill-opacity:1;fill-rule:nonzero;stroke:none"
           d="m 16160.3,13866.4 c -4.4,12.1 1.8,25.2 13.9,29.3 12.2,4.2 25.8,-2.3 30.2,-14.4 3.9,-10.6 16.7,-35.9 30.6,-62 15.6,-29.4 32.5,-59.3 40.1,-70.6 5.8,-8.5 15,-25.7 19.6,-41.2 4.4,-14.5 5.3,-29.3 -1.3,-40.6 -11.6,-20.2 -24.4,-33 -41.3,-40.8 -15.9,-7.4 -34,-9.5 -57.1,-9 -12.9,0.3 -23.4,10.8 -23.4,23.5 0,12.8 10.5,22.9 23.4,22.6 16.2,-0.3 28,0.7 36.5,4.7 7.7,3.6 14.3,10.6 21,22.4 0.7,1.1 -1.6,1.2 -2.6,4.8 -3.4,11 -9.8,23 -13.7,28.9 -8.6,12.7 -26.4,44.2 -42.7,74.7 -14.9,28.1 -28.7,55.6 -33.2,67.7 v 0" /></g><g
         transform="scale(1.1971)"
         id="g176"><path
           id="path178"
           style="fill:#283c52;fill-opacity:1;fill-rule:evenodd;stroke:none"
           d="m 16255.9,13967.1 c -14.8,-4.5 -21.8,-26.5 -15.7,-49 6.2,-22.6 23.1,-37.2 37.9,-32.8 14.9,4.5 21.9,26.4 15.7,49 -6.1,22.6 -23,37.2 -37.9,32.8 v 0" /></g><g
         transform="scale(1.17745)"
         id="g180"><path
           id="path182"
           style="fill:#283c52;fill-opacity:1;fill-rule:evenodd;stroke:none"
           d="m 16255.2,14161.1 c -15.1,-4.5 -22.2,-26.8 -16,-49.8 6.3,-22.9 23.5,-37.8 38.6,-33.2 15.1,4.5 22.2,26.8 16,49.7 -6.3,23 -23.5,37.9 -38.6,33.3 v 0" /></g><g
         transform="scale(1.20196)"
         id="g184"><path
           id="path186"
           style="fill:#b65b53;fill-opacity:1;fill-rule:nonzero;stroke:none"
           d="m 16038.3,13440.4 c -13.9,9.9 -17.3,29.2 -7.4,43.2 9.8,14 29.2,17.3 43.1,7.5 111.6,-78.3 159.9,-2.5 164.3,4.2 l 0.6,1.1 c 9.4,14.3 28.7,18.2 42.9,8.8 14.3,-9.5 18.2,-28.7 8.7,-43 l -0.4,-0.6 c -8.7,-13.6 -89.1,-135.3 -251.8,-21.2 v 0" /></g><g
         transform="scale(1.15369)"
         id="g188"><path
           id="path190"
           style="fill:#41809f;fill-opacity:1;fill-rule:evenodd;stroke:none"
           d="m 15417.3,3185.79 c 8,-9.63 18.7,-18.99 28.7,-26.79 209.5,-162.43 379,-223.11 649,-164.78 82.3,17.78 111.1,86.43 123.3,-19.06 15,-129.15 81.7,-376.01 -104.1,-370.12 -201.8,6.41 -413.8,-44.81 -602.2,123.43 -169.5,151.51 -89.6,260.73 -99.8,457.32 h 5.1 v 0" /></g><g
         transform="scale(1.25902)"
         id="g192"><path
           id="path194"
           style="fill:#41809f;fill-opacity:1;fill-rule:evenodd;stroke:none"
           d="m 15591,2785.19 c -15.8,-39.8 -30.9,-301.27 -8.9,-330.58 78.2,-103.89 244.1,-70.85 362.2,-70.85 88.4,0 298.3,-18.58 318.9,82.77 7.2,35.18 7.7,74.1 11.1,91.42 6.2,30.1 25.7,192.93 -6.2,202.85 -110.7,34.71 -580,-19.62 -641.2,23.99 -2.3,1.67 -35.2,2.06 -35.9,0.4 v 0" /></g><g
         transform="scale(1.22191)"
         id="g196"><path
           id="path198"
           style="fill:#000000;fill-opacity:1;fill-rule:evenodd;stroke:none"
           d="m 16065,13714.4 c 180.2,84.8 -22.1,160.5 90.1,199.4 0.6,0.2 144.9,80 -18.5,73.5 -30.1,-1.2 7.4,120.9 -70.1,65.6 -47.5,-34 -40.8,46.9 -117.9,67.8 -70.3,19 53.1,125.8 -46.8,142.1 -82,13.4 -119.1,-2.1 -198.5,54.4 -10.1,7.2 -175.6,31.4 -177.7,-12.6 -2,-42.1 -115.5,98.3 -155.9,9.2 -17,-37.4 78.6,-72.7 -102,-77.8 -203.5,-5.7 -3.6,-124.5 -183.9,-124.5 -70.9,0 8.6,-165.2 -110.3,-169.8 -58.6,-2.2 56.4,-87.1 -43,-164.3 -18.4,-14.3 63,-51.6 -30.2,-28.8 -1.3,0.3 -89.3,-18.5 -18.8,-75.1 23.6,-19 -107.1,-181.2 59.7,-264.3 30,-14.9 80.2,34.2 91.6,-106.9 6.5,-80 82,2.3 120.7,-109.6 29.2,-10.1 68.3,22.1 -19.5,-29.2 -30.2,-17.5 -48.2,-206.7 80.1,-97.3 30.2,25.7 -39.9,-38 67,-11.8 38.5,9.4 -38.3,-31.9 50.6,-13.8 103.2,21 97.8,-97 158.1,7.6 -2,4.7 -33.6,110.8 -88.5,155.3 -161.8,-24 -348.6,231.2 -69.2,295.3 22.7,5.2 85.7,-5.2 75.9,-1.1 0.3,4.3 -105.9,6.7 -0.5,113 94.4,95.3 70,43.7 104.6,210.3 80.6,27.9 121.6,70.1 247.6,65.2 52.1,-2.1 47,40.5 134.5,-21.8 58.3,-41.6 29.7,60.5 114.9,-96.6 2.4,-4.3 68.9,-42 69.2,-42 l -13.3,-11.4 v 0" /></g><g
         transform="scale(1.18548)"
         id="g200"><path
           id="path202"
           style="fill:#000000;fill-opacity:1;fill-rule:nonzero;stroke:none"
           d="m 16259.9,14120.9 c -2.3,6.5 -5.1,12.6 -8.4,18.3 l -294.1,-42.4 c -2.2,-6.7 -3.8,-13.7 -4.7,-21 -1.2,-9.3 -1.3,-19.1 -0.3,-29 l 5.6,-51.6 c 3.9,-27.1 16.6,-50.3 34,-66 17.1,-15.3 38.7,-23.5 61.3,-21.1 l 140.4,20.1 c 24,3.4 44.8,18.2 58.8,39.2 14.4,21.5 21.9,49.5 18.7,78.7 l -4.9,46.8 c -1.1,9.9 -3.2,19.3 -6.4,28 z m 8.2,38.9 c 6.3,-9.2 11.5,-19.4 15.5,-30.4 3.7,-10.6 6.4,-22 7.6,-33.8 l 5,-46.8 c 3.8,-35.3 -5.3,-69.2 -22.9,-95.4 -17.8,-26.7 -44.7,-45.6 -76,-50.1 -36.8,-5.3 -108,-20.2 -141.2,-20.2 -30,-3.2 -58.6,7.4 -80.9,27.4 -21.7,19.5 -37.3,48.1 -42.1,81.4 -3.2,15.8 -3.9,35.9 -5.7,52.3 -1.3,11.8 -1,23.5 0.4,34.9 1.5,11.7 4.5,23 8.5,33.6 l 2.8,6.9 c 108.1,15.7 216.4,31.2 324.5,46.7 l 4.5,-6.5 v 0" /></g><g
         transform="scale(1.20904)"
         id="g204"><path
           id="path206"
           style="fill:#000000;fill-opacity:1;fill-rule:nonzero;stroke:none"
           d="m 16263.4,13898.8 c -1.6,5.5 -3.7,10.7 -6.1,15.6 l -230.7,-38.6 c -1.6,-6.1 -2.9,-12.4 -3.6,-19 -1,-8.9 -1.1,-18.1 -0.2,-27.2 l 3.9,-43.5 c 0.3,-3.1 0.8,-6.5 1.3,-9.9 3.9,-23.5 13.9,-43.4 27.2,-56.9 12.5,-12.6 27.9,-19.5 43.9,-18 l 3.6,0.5 109.6,18.3 c 18.3,3.1 34.3,16.5 45.3,35.5 11.5,20.1 17.4,46.2 14.9,73.6 l -3.9,43.4 c -0.9,9.2 -2.7,18 -5.2,26.2 z m 11.3,35.5 c 5,-8.5 9.1,-18 12.2,-28.3 3,-9.7 5.2,-20.2 6.1,-31.2 l 4,-43.4 c 3,-32.5 -4.2,-63.8 -18.2,-88.1 -14.5,-25.2 -36.5,-43.1 -62.4,-47.5 l -109.6,-18.3 -5.5,-0.7 c -23.7,-2.2 -46,7.5 -63.7,25.3 -16.7,16.9 -29.2,41.4 -33.9,70.1 -0.6,3.6 -1.1,7.6 -1.5,11.7 l -3.9,43.4 c -1,11.1 -0.9,21.9 0.2,32.2 1.3,10.7 3.6,21.2 6.9,31 l 2.3,7.1 262.7,44 4.3,-7.3 v 0" /></g><g
         transform="scale(1.20787)"
         id="g208"><path
           id="path210"
           style="fill:#000000;fill-opacity:1;fill-rule:evenodd;stroke:none"
           d="m 15614.5,13868.3 683.1,111.9 2.4,-64.9 -673.3,-110.8 -12.2,63.8 v 0" /></g><g
         transform="scale(1.15821)"
         id="g212"><path
           id="path214"
           style="fill:#000000;fill-opacity:1;fill-rule:evenodd;stroke:none"
           d="m 16300,14397 -16,65.9 -250.4,-243.5 38.9,-38.8 227.5,216.4 v 0" /></g><g
         transform="scale(1.21455)"
         id="g216"><path
           id="path218"
           style="fill:#d6effd;fill-opacity:1;fill-rule:evenodd;stroke:none"
           d="m 15895.2,12336.1 -512.2,360.2 -117.5,-80.5 606.6,-1415.3 118,27.8 309.9,1364.5 -82.3,80.1 -322.5,-336.8 v 0" /></g><g
         transform="scale(1.34398)"
         id="g220"><path
           id="path222"
           style="fill:#8faec1;fill-opacity:1;fill-rule:evenodd;stroke:none"
           d="m 15579.6,8902.77 c 184.4,-215.74 720.4,1626.73 -924.4,2552.03 56.8,-185.7 -206,-967.9 -271.9,-1222.1 l -573.5,1173.1 c -1386.2,-474.7 -2602,-1635.69 -1097,-2958.31 -8.8,-490.28 55.7,-857.05 261.2,-882.98 640,44.87 1518.8,285.7 2496.4,318.82 l -72.2,932.05 c 109.2,55.18 176,87.76 181.4,87.39 v 0" /></g><g
         transform="scale(1.20836)"
         id="g224"><path
           id="path226"
           style="fill:#60c6d0;fill-opacity:1;fill-rule:evenodd;stroke:none"
           d="m 16300,12740.4 -90.6,62.7 -232.7,-403.8 199.9,-174.3 123.4,515.4 v 0" /></g><g
         transform="scale(1.18439)"
         id="g228"><path
           id="path230"
           style="fill:#60c6d0;fill-opacity:1;fill-rule:evenodd;stroke:none"
           d="m 15774.8,13019.6 91.1,85.5 434.1,-454.9 -154.1,-249 -371.1,618.4 v 0" /></g><g
         transform="scale(1.17507)"
         id="g232"><path
           id="path234"
           style="fill:#703129;fill-opacity:1;fill-rule:evenodd;stroke:none"
           d="m 15214.4,12846.4 c 113.2,-239.2 205.7,-1390.6 189.2,-1669.3 -22.3,-378.8 229.6,-546.8 454.3,-145.1 442.1,790.7 -117.4,1971.5 -234.4,1971.5 -100.4,0 -326.6,-95.7 -409.1,-157.1 v 0" /></g><g
         transform="scale(1.15573)"
         id="g236"><path
           id="path238"
           style="fill:#895737;fill-opacity:1;fill-rule:evenodd;stroke:none"
           d="m 15587.2,13075.9 c 288.4,-367.7 276.1,-2056 -109.8,-2572.4 v -6.9 c 21.5,14.8 47.3,29 78,41 744.6,293.9 740.3,2195 272.4,2649.1 -71.8,69.8 -291,-46.6 -240.6,-110.8 v 0" /></g><g
         transform="scale(1.27175)"
         id="g240"><path
           id="path242"
           style="fill:#1c4762;fill-opacity:1;fill-rule:nonzero;stroke:none"
           d="m 16298.4,9321.57 c 1.6,-16.06 -10,-30.49 -26.1,-32.19 -16,-1.71 -30.5,9.94 -32.2,25.99 L 16017.6,11356 c -1.6,16.1 10,30.5 26.1,32.2 16,1.7 30.5,-9.9 32.1,-26 l 222.6,-2040.63 v 0" /></g><g
         transform="scale(1.12323)"
         id="g244"><path
           id="path246"
           style="fill:#895737;fill-opacity:1;fill-rule:evenodd;stroke:none"
           d="m 16277.9,13693.8 c -312.8,527.5 -944.9,59.8 -878,-267.8 27,-132.1 177.8,12.7 177.8,95.3 0,395.2 456.4,374 602.5,187.5 18.3,-23.3 119.8,-52.2 97.7,-15 v 0" /></g><g
         transform="scale(1.30179)"
         id="g248"><path
           id="path250"
           style="fill:#7e4434;fill-opacity:1;fill-rule:evenodd;stroke:none"
           d="m 16198.4,8196.28 c -20.6,-184.15 -91.6,-465.86 -200.9,-614.69 -202.8,-275.85 -194.5,479.65 -179.5,502.66 212.1,325.9 5.4,877.56 52.6,1307.41 108.8,112.43 225.7,138.2 368.9,-60.13 60.5,-351.14 -18.9,-938.45 -41.1,-1135.25 v 0" /></g><g
         transform="scale(1.27827)"
         id="g252"><path
           id="path254"
           style="fill:#41809f;fill-opacity:1;fill-rule:nonzero;stroke:none"
           d="m 16269.9,7553.26 0.2,0.23 -0.2,-0.23 z m 0,0.7 v -0.31 h 0.1 l -0.1,0.31 z m -172.2,681.58 c 0,8.05 6.5,14.59 14.5,14.59 8.1,0 14.7,-6.54 14.7,-14.59 0,-31.08 -0.8,-65.34 -1.6,-99.41 -1.9,-86.69 -3.7,-172.01 8.1,-259.05 7.9,-57.76 24.9,-132.78 56.7,-195.13 22.7,-44.36 52.9,-82.23 92.8,-101.94 1.6,-0.78 3,-1.88 4.2,-3.05 1.6,-1.41 3.3,-3.05 4.7,-4.62 2.3,-2.73 4.7,-6.1 5.7,-8.99 2.5,-7.67 -1.6,-15.88 -9.2,-18.47 -7.1,-2.34 -14.7,1.02 -17.8,7.59 l -0.6,0.71 c -0.3,0.31 -0.3,0.47 0,0.47 v -0.32 l 0.2,0.16 -0.1,0.16 0.4,0.07 -0.5,0.32 c -0.2,0.55 -0.2,0.31 -0.1,0 -46,22.84 -80.3,65.24 -105.5,114.68 -33.7,65.88 -51.4,144.26 -59.6,204.49 -12.3,89.12 -10.4,175.59 -8.4,263.47 0.7,31.49 1.4,63.18 1.4,98.86 v 0" /></g><g
         transform="scale(1.14888)"
         id="g256"><path
           id="path258"
           style="fill:#7e4434;fill-opacity:1;fill-rule:evenodd;stroke:none"
           d="m 15600.8,10224.7 c 6.5,-27.6 381.8,-1182.66 382.2,-1182.98 60.5,-60.6 218.5,-125.79 317,-188.7 -7.1,-24.18 -15.2,-48.23 -21.3,-52.53 -0.7,-0.46 -56.1,-139.69 -94.6,-176.25 -40.8,-38.82 -211.5,-232.66 -234.9,-244.32 -11,-5.49 -108.1,-107.93 -162.8,-137.09 -14.2,47.09 -31.9,135.26 -63.1,288.54 -108.2,531.37 -559.1,874.72 -683.8,1340.75 95.5,0 605.9,275.78 561.3,352.58 v 0" /></g><g
         transform="scale(1.10761)"
         id="g260"><path
           id="path262"
           style="fill:#1c4762;fill-opacity:1;fill-rule:nonzero;stroke:none"
           d="m 16179.5,12885.2 c 0,18.6 15,33.7 33.6,33.7 18.6,0 33.7,-15.1 33.7,-33.7 0,-124.4 -53.4,-280 -114.7,-458.6 -148.8,-433.5 -345.7,-1006.9 101.9,-1532.9 26.4,-30.9 42.2,-63.3 49,-96.6 17,-82.2 -20.8,-165.6 -89.4,-243.3 l -1.8,-2 c -64.3,-72.3 -155.7,-140.3 -252.7,-197.1 -163.7,-96 -346,-161 -441.2,-161 -18.6,0 -33.7,15.1 -33.7,33.7 0,18.5 15.1,33.6 33.7,33.6 85.1,0 253.2,61.3 407.3,151.6 91.4,53.6 177.1,117.1 236.4,183.8 l 1.5,1.8 c 55.2,62.6 86.3,126.8 74.1,185.5 -4.6,22.4 -15.7,44.7 -34.2,66.6 -472.6,555.3 -268.8,1149.2 -114.6,1598.1 59.3,172.9 111.1,323.5 111.1,436.8 v 0" /></g><g
         transform="scale(1.15134)"
         id="g264"><path
           id="path266"
           style="fill:#41809f;fill-opacity:1;fill-rule:nonzero;stroke:none"
           d="m 16267,8914.86 c 0.9,8.86 8.8,15.38 17.6,14.55 8.9,-0.83 15.4,-8.72 14.6,-17.58 -29.8,-307.32 -475.5,-662.9 -723.7,-861.02 -34,-27.01 -64.2,-51.16 -89.7,-72.18 -6.8,-5.73 -17.1,-4.77 -22.7,2.09 -5.8,6.95 -4.8,17.11 2.1,22.84 24.6,20.41 55.4,44.99 90.1,72.61 244.5,194.99 683.3,545.2 711.7,838.69 v 0" /></g><g
         transform="scale(1.54108)"
         id="g268"><path
           id="path270"
           style="fill:#f0c088;fill-opacity:1;fill-rule:evenodd;stroke:none"
           d="m 16170.9,7290.52 c 5.1,22.54 -16.4,-4.8 38.2,31.3 34.9,23.11 1.4,75.4 6.8,77.84 50.6,22.3 0.3,84.12 31.5,106.4 52.6,129.77 -229.4,94.07 -321.9,27.88 -167.3,-41.92 -1023.9,446.34 -941.2,560.07 -4.8,-8.61 71.1,255.52 204.1,463.7 l -496,366.92 c -230.2,-382.65 -306.8,-868.28 -242.1,-1150.29 67.2,-293.67 1640.9,-832.96 1720.6,-483.82 v 0" /></g><g
         transform="scale(1.48685)"
         id="g272"><path
           id="path274"
           style="fill:#000000;fill-opacity:1;fill-rule:evenodd;stroke:none"
           d="m 16009.6,11006 c -6.1,-68.6 -139,-293.9 -241.9,-211.7 -45.2,36.3 -36.3,-566.9 394.9,-483.3 30.5,5.9 137.4,14.6 137.4,52.4 0,83.4 -106.8,236.2 -100.6,425.9 1.7,51.9 -21.3,285.1 -105.2,250.4 -34,-14 -39.3,-7.1 -77.6,-32.2 -2,-1.3 -7,-1.5 -7,-1.5 v 0" /></g><g
         transform="scale(1.56669)"
         id="g276"><path
           id="path278"
           style="fill:#f0c088;fill-opacity:1;fill-rule:evenodd;stroke:none"
           d="m 15225.2,10477.3 c -110.1,-275.7 -150.9,-542.99 100.8,-683.79 -90.5,-502.25 -638,-485.06 -567.2,-503.8 200.2,-201.12 1419.4,-333.78 1541.2,-131.07 -0.2,1.94 -80.2,244.25 -80.4,246.16 -437.5,-68.69 -636.1,105.41 -529.2,449.16 0.8,3.98 130.4,181.54 137.2,187.04 135.4,110.2 -11.2,302.7 -130.5,162.5 -144.2,497.6 -374.8,322.7 -471.6,274.6 l -0.3,-0.8 v 0" /></g><g
         transform="scale(1.61074)"
         id="g280"><path
           id="path282"
           style="fill:#e78543;fill-opacity:1;fill-rule:evenodd;stroke:none"
           d="m 15422,8926.78 603.2,113.06 c 130,-251.41 219.9,-518.15 274.8,-798.28 l -692.3,-298.5 -1422.8,21.11 -434.9,135.12 380.1,844.33 1291.9,-16.84 v 0" /></g><g
         transform="scale(1.49456)"
         id="g284"><path
           id="path286"
           style="fill:#f0c088;fill-opacity:1;fill-rule:evenodd;stroke:none"
           d="m 15932.4,1843.09 1.6,-0.67 0.7,3.61 c 51.3,63.97 91,206.55 60.1,281.22 l -1,2.48 c 172.5,852.49 306.2,1764.33 240.7,2778.14 -221.5,189.82 -388.3,379.65 -609.7,569.47 131.2,-1137.73 202.4,-2288.77 115.1,-3475.08 -25.6,-54.39 -203,-234.31 -202.3,-250.3 2.5,-65.44 -27.7,-47.85 -4.2,-93.07 27.9,-53.67 177.3,-23.76 222,3.34 120.3,72.86 97.3,88.12 175.7,179.45 l 1.3,1.41 v 0" /></g><g
         transform="scale(1.55704)"
         id="g288"><path
           id="path290"
           style="fill:#f0c088;fill-opacity:1;fill-rule:evenodd;stroke:none"
           d="m 15744.1,4748.23 422.8,519.13 c 133.1,-1070.88 80.4,-2141.82 -89.8,-3212.76 18.1,-73.92 31.8,-199.8 31.8,-240.33 0,-129.6 5.4,-78.54 -29.8,-191.39 -14,-44.89 -109.9,-109.69 -158.2,-103.98 -92.8,11.05 -151.1,46.18 -151.1,144.25 0,109.57 51.5,168.72 48.6,405.13 -8.5,680.13 -54.9,2406.81 -74.3,2679.95 v 0" /></g><g
         transform="scale(1.47694)"
         id="g292"><path
           id="path294"
           style="fill:#000004;fill-opacity:1;fill-rule:evenodd;stroke:none"
           d="m 16195.3,2207.88 c 0.7,-0.95 33.7,-98.31 36.2,-108.06 16.2,-63.24 68.5,-95.74 68.5,-203.73 0,-115.65 -59.3,-190.4 -59.3,-316.81 -47.9,0 -42.2,-24.1 -53.9,70.42 -3.3,27.15 -12.3,68.52 -44.3,68.52 -48.3,0 -137.2,-128.51 -177.9,-138.94 -57.2,-14.69 -54.6,-20.31 -125.4,-31.48 -64.1,-10.16 -171.7,-11.18 -233.9,-3.59 -163,20.17 -121.6,65.33 50.1,193.91 9.8,7.25 71.4,55.32 72.1,49.29 6.6,-50.51 136.5,-57.35 181.2,-45.56 102.9,27.15 90.3,26.74 156.2,117.2 19.5,26.74 123.9,255.05 123.9,281.6 0,14.42 1.2,73.46 6.5,67.23 v 0" /></g><g
         transform="scale(1.54122)"
         id="g296"><path
           id="path298"
           style="fill:#000004;fill-opacity:1;fill-rule:evenodd;stroke:none"
           d="m 16275.3,1713.12 c 7.9,-77.27 24.7,-96.93 -22.9,-180.24 -43.8,-76.76 -98.5,-109.01 -147.2,-104.27 -48.8,-4.74 -103.6,27.51 -147.4,104.27 -47.6,83.31 -30.7,102.97 -22.9,180.24 1,10.32 45.8,-37.05 96.4,-64.88 121.2,-66.83 242.9,76.24 244,64.88 v 0" /></g><g
         transform="scale(1.59385)"
         id="g300"><path
           id="path302"
           style="fill:#283c52;fill-opacity:1;fill-rule:evenodd;stroke:none"
           d="m 15257.6,6585.34 -826.1,27.69 c -160.9,-696.02 -156.6,-1654.08 -124.3,-2411.56 801,-29.36 1122.2,-28.48 1923.2,0.82 32.3,757.53 69.6,1770.12 -91.3,2466.12 l -881.5,-83.07 v 0" /></g><g
         transform="scale(1.51365)"
         id="g304"><path
           id="path306"
           style="fill:#1e84a9;fill-opacity:1;fill-rule:nonzero;stroke:none"
           d="m 15752.9,6107.75 c -2.8,5.35 -9.2,7.4 -14.5,4.69 -5.3,-2.77 -7.4,-9.25 -4.7,-14.53 l 544.4,-1054.67 c 2.7,-5.29 9.2,-7.4 14.5,-4.69 5.3,2.77 7.4,9.25 4.6,14.53 l -544.3,1054.67 v 0" /></g><g
         transform="scale(1.51408)"
         id="g308"><path
           id="path310"
           style="fill:#1e84a9;fill-opacity:1;fill-rule:nonzero;stroke:none"
           d="m 15753,6509.1 c -2.6,5.29 -9.2,7.33 -14.5,4.63 -5.2,-2.71 -7.4,-9.25 -4.6,-14.53 l 544.2,-1054.37 c 2.7,-5.29 9.2,-7.4 14.5,-4.69 5.3,2.77 7.4,9.24 4.7,14.53 L 15753,6509.1 v 0" /></g><g
         transform="scale(1.49473)"
         id="g312"><path
           id="path314"
           style="fill:#d67a5b;fill-opacity:1;fill-rule:evenodd;stroke:none"
           d="m 16051.1,10272.4 c 60.9,-8.7 153.8,4.6 187.4,27.9 23.7,16.5 61.5,56.6 36.7,10.5 -14.4,-26.8 -43.5,-56.5 -68.9,-75.2 -24.6,-18.3 -105.3,-58.6 -170.5,-77.6 8,27.3 21.8,72.4 28.1,107 -4.4,2.5 -8.6,4.9 -12.8,7.4 v 0" /></g><g
         transform="scale(1.4766)"
         id="g316"><path
           id="path318"
           style="fill:#d67a5b;fill-opacity:1;fill-rule:nonzero;stroke:none"
           d="m 16274.3,10882.6 c 1.9,10.7 -5.2,21 -16,22.9 -10.7,1.9 -20.9,-5.2 -22.8,-15.9 -1.8,-9.5 -8.6,-32.4 -16.3,-56.1 -8.7,-26.6 -18.2,-53.9 -22.9,-64.4 -3.4,-7.9 -8.6,-23.5 -10.1,-37.2 -1.5,-12.7 -0.1,-25.3 7,-33.9 12.6,-15.5 25.1,-24.6 40.2,-29.1 14.4,-4.2 29.7,-3.7 48.7,-0.4 10.7,1.9 17.9,12.1 16,22.8 -1.8,10.7 -12.1,17.9 -22.8,16 -13.3,-2.3 -23.2,-2.9 -30.8,-0.6 -7,2 -13.5,7.1 -20.9,16.1 -0.7,0.9 1.2,1.2 1.6,4.4 1.1,9.7 4.7,20.6 7.1,26 5.2,11.8 15.3,40.6 24.4,68.3 8.2,25.4 15.6,50.4 17.6,61.1 v 0" /></g><g
         transform="scale(1.48531)"
         id="g320"><path
           id="path322"
           style="fill:#ffffff;fill-opacity:1;fill-rule:evenodd;stroke:none"
           d="m 16070.9,10569.1 c 53.8,-47.2 229.1,-11.4 229,-12.4 -15.8,-116.8 -193.3,-150.3 -231.4,12.8 l 2.4,-0.4 v 0" /></g><g
         transform="scale(1.49294)"
         id="g324"><path
           id="path326"
           style="fill:#000000;fill-opacity:1;fill-rule:nonzero;stroke:none"
           d="m 16150,10764.2 c -5.3,-4.5 -13.1,-4 -17.7,1.2 -4.4,5.2 -3.9,13.1 1.2,17.6 8.2,7.1 16.6,12.8 25,17.1 22.9,11.7 45.9,13.6 66.9,8.3 20.9,-5.2 39.7,-17.6 54.3,-34.3 6.6,-7.6 12.4,-16.2 17.2,-25.6 3.1,-6.1 0.7,-13.6 -5.4,-16.7 -6.1,-3.2 -13.6,-0.7 -16.8,5.4 -3.7,7.3 -8.4,14.2 -13.9,20.5 -11.3,13 -25.7,22.6 -41.4,26.5 -15.5,3.9 -32.5,2.5 -49.4,-6.2 -6.6,-3.4 -13.3,-8 -20,-13.8 v 0" /></g><g
         transform="scale(1.47024)"
         id="g328"><path
           id="path330"
           style="fill:#000000;fill-opacity:1;fill-rule:nonzero;stroke:none"
           d="m 16200.9,10978.2 c -4.2,-5.6 -12.2,-6.7 -17.8,-2.6 -5.5,4.2 -6.8,12.2 -2.5,17.8 11.2,15 23.2,24.1 35.3,28.1 8.3,2.8 16.6,3.2 24.6,1.6 l 0.3,-0.1 c 7.7,-1.6 14.9,-5.1 21.5,-10 15.1,-11.2 27.6,-30.7 35.5,-54.4 2.2,-6.6 -1.3,-13.8 -7.9,-16 -6.7,-2.2 -13.8,1.3 -16.1,8 -6.3,18.8 -15.7,33.9 -26.7,42.1 -3.7,2.8 -7.6,4.7 -11.4,5.5 l -0.2,0.1 c -3.7,0.7 -7.7,0.5 -11.5,-0.8 -7.3,-2.4 -15.1,-8.6 -23.1,-19.3 v 0" /></g><g
         transform="scale(1.56612)"
         id="g332"><path
           id="path334"
           style="fill:#000000;fill-opacity:1;fill-rule:evenodd;stroke:none"
           d="m 15232.9,10718.1 c -105.7,-83.2 -128,-246 -19.5,-318.6 3.1,-2.1 466.8,57.5 466.8,-169.9 0,-87.2 -37.8,-83.9 14.4,-31.8 38.5,38.4 97.7,46.1 118,-14.2 83,-245.51 -182,-270.05 -219.1,-159.5 -383.8,-417.48 706.5,-692.88 563.9,199.2 -70.5,441.4 -699.1,672.1 -924.5,494.8 v 0" /></g><g
         transform="scale(1.59073)"
         id="g336"><path
           id="path338"
           style="fill:#c6e7fa;fill-opacity:1;fill-rule:evenodd;stroke:none"
           d="m 15544.6,9308.26 -458.7,-671.12 -190.3,664.89 -587.8,-245.93 c 12.7,-925.1 280,-1494.45 47.1,-2513.74 854.5,-203.41 1150,-126.4 1945.1,94.05 l -444.6,1598.88 371.3,918.24 c -118.9,128.39 -314,155.43 -682.1,154.73 v 0" /></g><g
         transform="scale(1.52172)"
         id="g340"><path
           id="path342"
           style="fill:#7e4434;fill-opacity:1;fill-rule:evenodd;stroke:none"
           d="m 15424.2,9661.06 -229.3,-96.82 995.4,-2977.47 109.7,12.65 -875.8,3061.64 v 0" /></g><g
         transform="scale(1.51034)"
         id="g344"><path
           id="path346"
           style="fill:#d55147;fill-opacity:1;fill-rule:evenodd;stroke:none"
           d="m 16006.6,9196.81 -1009.1,-205.62 323.1,-1703.71 979.4,62.93 -293.4,1846.4 v 0" /></g><g
         transform="scale(1.52004)"
         id="g348"><path
           id="path350"
           style="fill:#4c1a0f;fill-opacity:1;fill-rule:evenodd;stroke:none"
           d="m 16196,7303.5 -291.6,1834.62 123.4,-5.33 272.2,-1832.88 -104,3.59 v 0" /></g><g
         transform="scale(1.52528)"
         id="g352"><path
           id="path354"
           style="fill:#41809f;fill-opacity:1;fill-rule:evenodd;stroke:none"
           d="m 15577,9021.73 -927.4,-386.93 717.7,-1588.29 932.7,243.36 -723,1731.86 v 0" /></g><g
         transform="scale(1.53484)"
         id="g356"><path
           id="path358"
           style="fill:#436ea7;fill-opacity:1;fill-rule:evenodd;stroke:none"
           d="m 16198.5,7244.47 -718.5,1721.08 120.7,17.83 699.3,-1723 -101.5,-15.91 v 0" /></g><g
         transform="scale(1.62563)"
         id="g360"><path
           id="path362"
           style="fill:#f0c088;fill-opacity:1;fill-rule:evenodd;stroke:none"
           d="m 14591.1,7230.78 c 145.1,-82.59 1050.6,116.95 1008,242.71 1.9,-9.15 7.6,251.31 -54.1,477.2 l 552.4,192.38 c 100.5,-411.2 202.6,-820.01 64.6,-1057.05 -142.2,-352.52 -2091,-453.74 -2004.1,437.15 13.3,135.7 102.9,-128.64 260.9,-193.98 30.5,-12.6 75.4,160.79 75.4,120.76 0,-86.53 121.3,-101.65 96.9,-219.17 v 0" /></g><g
         transform="scale(1.59508)"
         id="g364"><path
           id="path366"
           style="fill:#d67a5b;fill-opacity:1;fill-rule:nonzero;stroke:none"
           d="m 15902.7,7627.79 c -8.4,-2.43 -13.5,-12.18 -11.4,-21.75 2.2,-9.55 10.9,-15.31 19.3,-12.87 79.9,23.06 338.3,18.25 370,17.66 l 3.2,-0.01 c 8.8,-0.14 15.9,7.78 16.1,17.66 0.1,9.87 -6.9,17.99 -15.7,18.13 l -3.1,0.05 c -32.1,0.65 -294,5.5 -378.4,-18.87 v 0" /></g><g
         transform="scale(1.51826)"
         id="g368"><path
           id="path370"
           style="fill:#f0c088;fill-opacity:1;fill-rule:evenodd;stroke:none"
           d="m 14912.2,8088.75 c 233.3,-99.87 343.1,-767.67 778.9,-925.19 36.3,39.18 78.8,90.91 124.4,96.11 84.1,9.56 210.2,-20.11 268,47.61 8,9.4 22.2,-50.75 -17.3,-64.37 -363.2,-125.28 233.8,25.12 232.5,14.94 -26.1,-212.8 -450.1,-275.42 -763.8,-251.94 -631.7,47.28 -1094.9,1030.71 -758.2,1086.18 17.2,2.79 116.8,4.69 135.5,-3.34 v 0" /></g><g
         transform="scale(1.64182)"
         id="g372"><path
           id="path374"
           style="fill:#4c1a0f;fill-opacity:1;fill-rule:evenodd;stroke:none"
           d="m 15206.5,4648.94 -176.7,1458.77 880.9,251.9 389.3,-1350.34 -1093.5,-360.33 v 0" /></g><g
         transform="scale(1.53167)"
         id="g376"><path
           id="path378"
           style="fill:#7e4434;fill-opacity:1;fill-rule:evenodd;stroke:none"
           d="m 16110.5,6546.91 -25.4,-2.93 -44.6,-1424.42 259.5,-136.32 -189.5,1563.67 v 0" /></g><g
         transform="scale(1.59753)"
         id="g380"><path
           id="path382"
           style="fill:#7e4434;fill-opacity:1;fill-rule:evenodd;stroke:none"
           d="m 16066.3,7004.1 145.3,41.85 88.4,-524.82 -114.1,-32.63 -119.6,515.6 v 0" /></g><g
         transform="scale(1.64348)"
         id="g384"><path
           id="path386"
           style="fill:#7e4434;fill-opacity:1;fill-rule:evenodd;stroke:none"
           d="m 15002.6,6100.15 17.2,-42.47 403,-763.81 877.2,252.39 -405.5,806.89 -891.9,-253 v 0" /></g><path
         id="path388"
         style="fill:#00203f;fill-opacity:1;fill-rule:evenodd;stroke:none"
         d="m 5871.4,14627.9 c -64.45,122.7 -645.78,166.2 -674.1,-316.4 h 123.3 c 112.36,200.9 221.97,345.8 497.17,232.3 54.82,-22.6 48.41,10.7 66.19,53.7 9.9,23.9 -9.42,24.5 -12.56,30.4 v 0" /><path
         id="path390"
         style="fill:#00203f;fill-opacity:1;fill-rule:evenodd;stroke:none"
         d="m 5693.98,14462.7 c -230.64,0 -428.58,-31 -628.72,-139.6 -114.97,-62.3 -346.54,-207.5 -416.06,-316.4 -16.28,-25.5 -132.54,-132.3 -192.61,-233 -159.64,-267.6 -209.31,-378.1 -334.37,-663 -28.21,-64.2 -136.78,-315.1 -205.27,-321.2 -2.79,-0.3 153.45,-381.8 539.93,-381.8 317.68,0 426.25,196.9 589.3,440 131.31,195.8 78.69,740.6 304.7,1143.1 107.63,191.7 435.22,294.3 343.1,471.9 v 0" /><path
         id="path392"
         style="fill:#d55147;fill-opacity:1;fill-rule:evenodd;stroke:none"
         d="m 7437.87,11139.4 -406.65,-1261.1 1110.92,-569.2 688.05,1235.2 -1392.32,595.1 v 0" /><path
         id="path394"
         style="fill:#4c1a0f;fill-opacity:1;fill-rule:evenodd;stroke:none"
         d="m 8830.19,10544.3 -688.05,-1235.2 196.75,0.8 640.13,1057.1 -148.83,177.3 v 0" /><path
         id="path396"
         style="fill:#39577b;fill-opacity:1;fill-rule:evenodd;stroke:none"
         d="m 6076.06,14368.7 c -1447.92,520.4 -2298.17,-2592.9 -1531.8,-3334.3 253.7,-245.5 628.9,-339.6 1009.26,-300.6 68.57,7 304.78,1120.9 304.78,1298.7 0,502.7 -67.29,1610 105.63,2034.2 55.84,137.1 197.97,271.1 112.13,302 v 0" /><path
         id="path398"
         style="fill:#f2ad89;fill-opacity:1;fill-rule:evenodd;stroke:none"
         d="m 5303.08,7678.5 -69.14,59.3 1.95,-59.3 h 67.19 z m 435.73,-5005.8 2.22,-1 1.06,5 c 71.45,89.2 126.74,287.9 83.63,392 l -1.28,3.4 c 28.75,142.2 56.74,285.5 83.55,430.1 h -533.7 l 20.15,-607.7 c -35.71,-75.9 -206.88,-326.6 -205.93,-348.9 3.6,-91.1 -38.54,-66.6 -5.79,-129.6 38.85,-74.8 247.04,-33.2 309.41,4.6 167.62,101.6 135.59,122.8 244.95,250.1 l 1.73,2 v 0" /><path
         id="path400"
         style="fill:#f2ad89;fill-opacity:1;fill-rule:evenodd;stroke:none"
         d="m 7334.52,3502.2 c -19.2,-138.4 -39.81,-276.7 -61.8,-415 26.31,-107.4 46.27,-290.1 46.27,-348.9 0,-188.3 7.74,-114.1 -43.37,-278 -20.36,-65.2 -159.52,-159.2 -229.64,-150.9 -134.81,16 -219.43,66.9 -219.43,209.4 0,159.1 74.76,244.9 70.51,588.3 -1.42,113.6 -6.8,247.2 -15.2,395.1 h 452.66 z m -12.65,4176.3 81.33,73.5 c 3.04,-24.5 6.01,-49 8.92,-73.5 h -90.25 v 0" /><path
         id="path402"
         style="fill:#58ba57;fill-opacity:1;fill-rule:evenodd;stroke:none"
         d="m 5839.08,3144.8 c 1.06,-1.3 46.38,-135.4 49.83,-148.8 22.37,-87.1 94.4,-131.9 94.4,-280.6 0,-159.3 -81.64,-262.2 -81.64,-436.4 -66,0 -58.14,-33.1 -74.23,97 -4.61,37.4 -16.91,94.4 -61.02,94.4 -66.61,0 -189.07,-177 -244.94,-191.4 -78.79,-20.2 -75.29,-27.9 -172.84,-43.3 -88.18,-14 -236.49,-15.4 -322.15,-4.9 -19.74,2.4 -172.93,-4.5 -148.63,15.1 32.87,26.5 109.77,171.1 217.73,251.9 13.38,10 98.24,76.2 99.33,67.9 9.03,-69.5 187.89,-79 249.38,-62.8 141.89,37.5 124.5,36.9 215.19,161.4 26.82,36.9 170.74,351.3 170.74,387.8 0,20 1.68,101.3 8.85,92.7 v 0" /><path
         id="path404"
         style="fill:#58ba57;fill-opacity:1;fill-rule:evenodd;stroke:none"
         d="m 7320.43,2566 c 11.26,-111 35.49,-139.3 -32.86,-259 -63,-110.3 -141.66,-156.7 -211.73,-149.8 -70.12,-6.9 -148.79,39.5 -211.77,149.8 -68.34,119.7 -44.14,148 -32.88,259 1.51,14.9 65.77,-53.2 138.4,-93.2 174.37,-96 349.2,109.6 350.84,93.2 v 0" /><path
         id="path406"
         style="fill:#41809f;fill-opacity:1;fill-rule:evenodd;stroke:none"
         d="m 6900.96,11105.8 -130.76,-1462.9 1340.33,-343.3 441.35,1503.9 -1650.92,302.3 v 0" /><path
         id="path408"
         style="fill:#436ea7;fill-opacity:1;fill-rule:evenodd;stroke:none"
         d="m 8551.88,10803.5 -441.35,-1503.9 212.5,49.1 433.16,1299.5 -204.31,155.3 v 0" /><path
         id="path410"
         style="fill:#f2ad89;fill-opacity:1;fill-rule:evenodd;stroke:none"
         d="m 7566.61,9812.5 c 169.11,-134.9 154.37,-459.3 292.5,-443.7 v 0 l 98.37,-28.8 c -68.92,-162.7 -232.95,-120.6 -456.95,-84 -105.48,17.3 -113.71,146.8 -113.71,229.6 0,194 -163.46,762.7 -163.46,1062.4 0,172.9 -97.32,1013.6 214.59,905.8 44.85,-15.5 348.54,-181.9 373.85,-211.1 L 7566.61,9812.5 v 0" /><g
         transform="scale(1.05369)"
         id="g412"><path
           id="path414"
           style="fill:#eb6440;fill-opacity:1;fill-rule:evenodd;stroke:none"
           d="m 7013.42,12782.9 c 120.88,240 -274.54,-320.2 -368.61,275.9 50.88,48.7 103.18,109.6 149.51,177.1 l 10.45,0.2 c 42.17,-150.7 84.51,-278.2 166.19,-312.8 279.48,-118.1 123.25,204.2 239.78,314.1 139.52,131.5 166.13,278.9 141.36,422.1 100.31,91.1 166.55,39.4 174.25,204.2 3.15,67.2 -162.42,113.8 -24.37,160.7 233.5,79.3 -11.6,142.1 -11.6,214.2 0,34.1 284.79,172.9 46.69,221.4 -97.43,19.9 -88.02,67.8 -41.99,77.2 112.19,22.8 118.89,145 54.35,157.1 -252.27,47.2 64.28,50.6 22.3,206.9 -30.56,113.9 -220.15,-32.1 -220.15,134.1 0,31.4 137.46,89.2 81.38,161.9 -4.28,5.5 -457.97,65 -283.9,167.5 146.57,86.4 -25.81,143.7 -28.8,143.6 -265.49,-10.5 -71.96,143.5 -71.96,210.7 -385.76,0 -116.1,102.5 -139.67,132.3 -105.73,133.8 -201.88,176.2 -321.66,176.2 -127.91,0 142.34,186.2 -40.84,127.6 -314,-100.4 -91.77,72.8 -257.31,72.8 -3.38,0 -164.82,-182.5 -235.57,-76.2 -98.69,148.3 -190.75,-2.4 -284.93,36.4 -138.43,57.1 -96.34,-135.5 -175.66,-114.4 -57.27,15.2 -505.9,-165.3 -338.57,-396.4 59.79,-82.5 -5.83,-176.4 74.06,-206.1 -262.48,-61.5 1.88,-158.3 -133.04,-234.1 -115.75,-65 91.56,-206.1 -51.85,-229.6 -16.56,-2.7 -249.27,-112.8 -65.94,-170.1 75.6,-23.5 59.1,-63 30.03,-106.8 -56.55,-64.3 -139.35,-68.5 -68.99,-129.6 114.88,-99.6 -81,-160.3 -14.54,-315.7 106.91,-250.1 209.89,-15.3 209.89,-159.8 0,-139.4 199.87,-99 128.52,-163.2 -85.51,-77 29.35,-87.2 -17.2,-138.8 -58.33,-64.6 -59.57,-119.6 -51.34,-163.8 -11.84,-39.1 -17.96,-77.4 -14.97,-112.3 l -3.9,-1.5 c -54.09,-19.2 -106.73,-148.9 -86.07,-212.1 22.23,-67.9 440.77,-215.9 518.32,-215.9 h 16.7 c 435.87,-332.7 1088.83,-733.6 1289.65,-335 v 0" /></g><g
         transform="scale(1.03225)"
         id="g416"><path
           id="path418"
           style="fill:#f2ad89;fill-opacity:1;fill-rule:evenodd;stroke:none"
           d="m 5465.23,15149.4 c -33.34,57.6 -50.22,103.2 -91.57,71.6 -80.44,-61.4 40.46,-292.3 126.67,-344.5 3.73,-2.2 10.76,-6.5 19.48,-11.3 35.4,-190.8 134.53,-341.4 342.2,-417 0,-106.5 -25.86,-313.6 -110.45,-402.9 -115.85,-122.3 -812.56,-457.6 -686.27,-468.3 -68.82,-821.4 1700.53,-462.6 2128.25,385.3 -55.37,70.8 -763.19,197 -826.59,611.8 75.76,56.3 136.64,155.1 184.71,267.5 25.26,8.5 54.67,26.4 63.97,32 86.2,52.1 207.06,283.1 126.65,344.5 -25.68,19.6 -57.32,-4.6 -85.57,-39.6 10.57,46.7 19.27,90.9 26.2,130.5 89.3,509.7 -1171.59,991 -1217.68,-159.6 v 0" /></g><path
         id="path420"
         style="fill:#ec8059;fill-opacity:1;fill-rule:evenodd;stroke:none"
         d="m 6031.3,14921.6 c 210.54,-78.6 525.51,72.4 540.29,125.6 -14.34,-46.6 -26.12,-699.3 -519.68,-272.6 4.24,42.3 -0.85,86.9 -0.85,139.5 -6.7,2.4 -13.26,5 -19.76,7.5 v 0" /><path
         id="path422"
         style="fill:#ec8059;fill-opacity:1;fill-rule:nonzero;stroke:none"
         d="m 6166.25,15783.1 c 0,16.1 -12.37,29.1 -27.56,29.1 -15.22,0 -27.61,-13 -27.61,-29.1 0,-14.2 -3.71,-49.3 -8.41,-85.8 -5.29,-41.1 -11.73,-83.3 -15.54,-99.8 -2.86,-12.3 -6,-36.4 -4.79,-56.8 1.08,-18.9 6.18,-36.8 18.09,-47.6 21.22,-19.2 40.69,-29.1 62.59,-31.7 20.78,-2.4 41.72,2.4 67.17,12.3 14.25,5.5 21.58,22.3 16.35,37.3 -5.24,15.1 -21.07,22.9 -35.32,17.4 -17.74,-7 -31.22,-10.4 -42.38,-9.1 -10.1,1.1 -20.23,6.8 -32.65,18 -1.14,1.1 1.35,2.1 1.09,6.9 -0.87,14.3 1.31,31.1 3.31,39.7 4.23,18.4 11.08,63 16.61,105.6 5.04,39.3 9.05,77.5 9.05,93.6 v 0" /><path
         id="path424"
         style="fill:#283c52;fill-opacity:1;fill-rule:evenodd;stroke:none"
         d="m 6395.92,15842.5 c -18.32,0 -33.17,-23.7 -33.17,-53 0,-29.3 14.85,-52.9 33.17,-52.9 18.3,0 33.18,23.6 33.18,52.9 0,29.3 -14.88,53 -33.18,53 v 0" /><path
         id="path426"
         style="fill:#283c52;fill-opacity:1;fill-rule:evenodd;stroke:none"
         d="m 5967.1,15842.5 c -18.32,0 -33.17,-23.7 -33.17,-53 0,-29.2 14.85,-52.9 33.17,-52.9 18.33,0 33.18,23.7 33.18,52.9 0,29.3 -14.85,53 -33.18,53 v 0" /><path
         id="path428"
         style="fill:#d15650;fill-opacity:1;fill-rule:nonzero;stroke:none"
         d="m 6252.78,15326.5 c 12.57,5.3 26.83,-1.2 31.81,-14.5 5,-13.3 -1.13,-28.4 -13.68,-33.6 -29.74,-12.6 -64.15,-18.4 -97.8,-16.9 -32.67,1.3 -64.88,9.5 -91.84,24.8 -3.82,1.6 -7.09,3.3 -12.6,10 -8.73,10.9 -7.5,27.2 2.75,36.5 9.44,8.5 23.34,8.1 32.32,-0.6 h 0.14 c 20.47,-11.8 45.51,-18.1 71.2,-19.1 26.74,-1.2 54.03,3.4 77.7,13.4 v 0" /><g
         transform="scale(1.01811)"
         id="g430"><path
           id="path432"
           style="fill:#eb6440;fill-opacity:1;fill-rule:evenodd;stroke:none"
           d="m 5632.86,15879.6 c 23.97,-5.2 46.06,-4.6 67.13,-0.4 v 0 0 c 5.84,1.2 11.6,2.6 17.3,4.2 24.55,-19.2 68,-34.6 128.92,35.2 99.29,113.7 0.73,-179.8 180.88,-63.9 123.04,79.2 62.48,-268.1 207.48,-164.9 74.81,53.3 62.09,-158.2 163.55,-158.2 228.73,0 93.99,-181.8 250.05,-126.3 140.82,50 -44.93,-59.1 6.24,-150.8 0.56,-1 102.82,98 191.27,197.7 40.39,5.4 83.93,14.5 131.09,27.7 112.15,31.5 82.25,138.8 85.16,245.9 4.34,160.3 -267.06,404.9 -410.01,472.3 -154.56,72.8 -291.73,101.9 -425.97,95.4 -6.96,0.2 -13.84,-0.2 -20.59,-1.3 -140.51,-10.6 -278.62,-60 -431,-138.6 -255.62,-132 -149.19,-272.3 -141.5,-274 v 0" /></g><path
         id="path434"
         style="fill:#d55147;fill-opacity:1;fill-rule:evenodd;stroke:none"
         d="m 5677.34,15432.5 c 53.59,0 97.03,-45.3 97.03,-101.2 0,-55.9 -43.44,-101.2 -97.03,-101.2 -53.58,0 -97.02,45.3 -97.02,101.2 0,55.9 43.44,101.2 97.02,101.2 v 0" /><path
         id="path436"
         style="fill:#d55147;fill-opacity:1;fill-rule:evenodd;stroke:none"
         d="m 6809.29,15446.2 c 58.63,0 106.16,-49.6 106.16,-110.8 0,-61.2 -47.53,-110.8 -106.16,-110.8 -58.66,0 -106.18,49.6 -106.18,110.8 0,61.2 47.52,110.8 106.18,110.8 v 0" /><path
         id="path438"
         style="fill:#e78543;fill-opacity:1;fill-rule:evenodd;stroke:none"
         d="m 5439.6,13793.7 c 301,-181.8 963.37,122.4 1234.78,287.4 18.74,11.3 112.43,70.1 115.13,83.1 79.84,16.5 72.16,194.5 72.16,-121.2 0,-156.4 -96.54,-942.6 -145.01,-1054.3 -49.06,-113 -101.03,-644.5 -174.59,-918.3 154.17,-56.1 279.08,-193.3 378.9,-342.3 222.99,-332.9 338.01,-806.3 433.15,-1200.7 117.89,-488.6 158.77,-1010.3 136.84,-1522.9 -1.85,-43 -2144.33,-64.7 -2370.11,98 -20.26,14.6 81.72,151.6 81.72,343.3 0,283.4 -41.92,802.2 -25.22,1029.1 27.95,379.5 -9.85,805.1 155.2,1136.2 31.36,438.5 -51.42,1891.6 25.31,2170.4 4.97,18 69.23,19.8 81.74,12.2 v 0" /><path
         id="path440"
         style="fill:#39577b;fill-opacity:1;fill-rule:evenodd;stroke:none"
         d="m 7191.8,11131.4 c 65.45,-207 104.16,-424 162.32,-615.4 362.55,-1193.3 97.64,-5641.9 8.5,-7477.8 -255.63,-105.1 -283.3,-116 -538.95,-24.8 l -565.77,5252 -313.67,-5065.1 c -371.09,-142 -219.99,-154.9 -623.77,-13.6 55.13,2290.4 -306.55,5014 -143.11,7275.8 9.61,133.1 11.45,271.7 16.45,410 l 1998,258.9 v 0" /><path
         id="path442"
         style="fill:#703129;fill-opacity:1;fill-rule:evenodd;stroke:none"
         d="m 5366.34,10899.2 1176.01,149.6 h 0.14 l -13.43,-150.2 -1144.2,-347.3 -18.52,347.9 v 0" /><path
         id="path444"
         style="fill:#2d8552;fill-opacity:1;fill-rule:evenodd;stroke:none"
         d="m 7703.26,14910.8 c 594.71,-268.6 326.27,-2910.9 318.75,-2910.9 -113.57,0 -669.52,-52.5 -708.23,40.8 -1.15,2.8 65.29,-769.8 232.8,-1252.5 145.98,-420.7 -154.86,-1309.1 -475.42,-1629.7 -122.31,-122.3 -63.68,-178.6 -277.87,101.4 -1040.5,1360 37.87,5429.5 -38.08,5502.4 186.71,-31.2 376.46,406.6 948.05,148.5 v 0" /><path
         id="path446"
         style="fill:#58ba57;fill-opacity:1;fill-rule:evenodd;stroke:none"
         d="m 8210.67,11713.1 c -31.9,-27.2 -199.63,-772.8 -575.85,-505 -33.66,23.9 -205.95,17.1 -211.08,42.2 -63.13,309.8 -122.94,361.3 -122.94,719.9 0,239.6 32.11,125.4 297.95,133.9 150.89,4.8 927.57,-121.6 611.92,-391 v 0" /><path
         id="path448"
         style="fill:#58ba57;fill-opacity:1;fill-rule:nonzero;stroke:none"
         d="m 6847.81,14794.9 c -1.99,20.4 12.94,38.6 33.37,40.6 20.44,2 38.65,-12.9 40.66,-33.4 0.45,-4.4 -1.75,-37.9 -5.03,-87.5 -8.41,-126.8 -24.12,-363.7 -24.12,-427.7 0,-202.1 43.74,-425.8 86.94,-646.8 58.31,-298.2 115.67,-591.6 66.77,-831.7 -76.69,-376.6 -134.04,-645.6 -178,-851.8 -78.66,-369 -115.02,-539.5 -129.3,-696.7 -12.28,-135.2 -8.67,-263.9 -1.99,-503.1 6.77,-242 16.66,-595.5 16.66,-1170 0,-20.6 -16.71,-37.3 -37.31,-37.3 -20.59,0 -37.31,16.7 -37.31,37.3 0,583.1 -9.73,930.3 -16.35,1168 -6.76,241.8 -10.4,372.1 2.28,511.8 14.8,162.9 51.37,334.3 130.46,705.4 45.14,211.8 104.02,487.9 178,851.2 45.85,225.1 -10.14,511.6 -67.06,802.6 -43.94,224.7 -88.4,452.2 -88.4,661.1 0,64.1 15.9,304 24.41,432.3 3.06,46.4 5.5,73.8 5.32,75.7 v 0" /><path
         id="path450"
         style="fill:#58ba57;fill-opacity:1;fill-rule:nonzero;stroke:none"
         d="m 7572.32,13767.7 c 7.01,19.3 28.36,29.2 47.67,22.3 19.31,-7 29.29,-28.4 22.3,-47.7 -76.68,-210.4 -144.22,-352.8 -199.55,-469.4 -145.17,-306.2 -204.01,-430.3 -112.73,-1172.5 1.68,-13.6 13.53,-67.5 21.29,-102.8 l 6.31,-29.5 c 4.1,-20.2 -8.88,-39.8 -29,-43.9 -20.11,-4.1 -39.75,8.9 -43.85,29 l -6.32,28.6 c -8.07,36.8 -20.4,92.8 -22.44,109.6 -93.9,763.4 -32.37,893.2 119.41,1213.2 54.74,115.4 121.57,256.3 196.91,463.1 v 0" /><path
         id="path452"
         style="fill:#2d8552;fill-opacity:1;fill-rule:evenodd;stroke:none"
         d="m 5649.96,14294.4 c -296.99,-40.1 -634.26,-354.6 -673.57,-674.3 -40.21,-327.1 -129.08,-698.3 -35.48,-1027 33.77,-118.5 16.76,-2874.7 16.76,-3336.9 0,156.7 343.9,-831.7 532.2,130.4 130.76,668.1 -65.87,4659.9 77.07,4802.8 23.56,23.6 41.51,99.4 83.02,105 v 0" /><path
         id="path454"
         style="fill:#2d8552;fill-opacity:1;fill-rule:evenodd;stroke:none"
         d="m 5171.85,11041.6 c -220.78,-8.1 -439.35,783 -465.17,993 -55.75,453.4 -123.99,257.4 309.87,647.7 146.34,131.7 186.45,-269.2 218.57,-378 23.53,-79.7 15.01,-1235 -6.08,-1234.1 -14.87,0.6 -30.36,-27.6 -57.19,-28.6 v 0" /><path
         id="path456"
         style="fill:#58ba57;fill-opacity:1;fill-rule:evenodd;stroke:none"
         d="m 5161.62,13168.5 c 14.39,-55 129.85,-86.6 165.14,-325.2 27.92,-188.6 31.86,-403.7 8.18,-596.2 -13.66,-111 -128.67,-246.2 -206.66,-324.3 -66.75,-66.8 -336.68,-353.2 -427.43,-231.5 -39.72,53.3 -98.93,58.9 -156.93,188 -87.66,195 -395.18,766 -319.48,971.2 12.57,34.1 201.29,424.2 201.29,330.7 0,-150.4 -15,-360.3 208.39,-281 100.24,35.7 505.57,-78.9 500.94,29.3 -1.21,28 35.44,205.1 26.56,239 v 0" /><path
         id="path458"
         style="fill:#2d8552;fill-opacity:1;fill-rule:nonzero;stroke:none"
         d="m 8223.35,11748.1 c 19.31,-7 29.3,-28.3 22.3,-47.6 -7,-19.3 -28.36,-29.3 -47.67,-22.3 -55.72,20.1 -106.59,41.2 -155.36,61.4 -142.76,59 -267.18,110.5 -455.7,110.5 -20.59,0 -37.31,16.8 -37.31,37.3 0,20.6 16.72,37.4 37.31,37.4 202.75,0 333.69,-54.2 483.96,-116.4 47.68,-19.8 97.41,-40.4 152.47,-60.3 v 0" /><path
         id="path460"
         style="fill:#2d8552;fill-opacity:1;fill-rule:nonzero;stroke:none"
         d="m 7335.18,11568.9 c -20.52,0.1 -37.08,16.8 -37.01,37.3 0.07,20.5 16.79,37.1 37.31,37 107.01,-0.5 214.25,-7.3 318.88,-22.6 105.61,-15.5 209.36,-39.7 308.63,-75 5.38,-1.9 9.44,-4 12.65,-6 15.3,-3.7 27.18,-16.8 28.46,-33.3 1.6,-20.6 -13.73,-38.5 -34.25,-40.1 -20.79,-1.6 -27.97,2.8 -35.46,10.5 -93.31,32.8 -191.06,55.5 -290.81,70.1 -102.07,15 -205.68,21.6 -308.4,22.1 v 0" /><path
         id="path462"
         style="fill:#2d8552;fill-opacity:1;fill-rule:nonzero;stroke:none"
         d="m 4743.17,12285.9 c -0.18,-3.3 0.37,1.2 0.87,2.5 l -0.81,-0.2 -0.06,-2.3 z m 437.72,941 c 7.15,19.2 28.56,29 47.8,21.8 19.23,-7.1 29.01,-28.5 21.86,-47.8 -0.36,-0.9 10.76,-78 22.1,-156.5 11.07,-76.7 22.34,-154.7 22.34,-183.3 0,-121.2 -61.73,-374.8 -160,-552.3 -37.95,-68.5 -81.82,-126.7 -130.39,-163.5 -54.2,-41 -113.8,-56.3 -177.5,-33.1 -47.12,17.2 -94.88,56.1 -142.17,122.5 -3.79,5.3 -5.97,11.3 -6.66,17.4 -1.98,5.4 -3.95,11.2 -5.28,15.8 -2.52,8.7 -4.39,17.3 -4.13,22 1.12,20.6 18.68,36.3 39.2,35.2 19.73,-1.1 35.01,-17.4 35.17,-36.9 l 0.81,0.2 c 0.13,0.4 0.25,0.5 0.37,0.2 1.78,-6.1 -0.12,-8.4 0.4,-9.8 l 0.74,-1 c 37.92,-53.2 73.64,-83.5 106.92,-95.6 36.83,-13.5 73.05,-3.3 107.24,22.6 39.8,30.1 77.07,80.2 110.27,140.1 92.37,166.9 150.4,403.6 150.4,516.2 0,24.1 -10.84,99.1 -21.48,172.8 -12.67,87.8 -25.12,174 -18.01,193 v 0" /><path
         id="path464"
         style="fill:#2d8552;fill-opacity:1;fill-rule:nonzero;stroke:none"
         d="m 5372.19,12791 c 13.43,15.5 36.94,17.2 52.47,3.8 15.54,-13.4 17.22,-36.9 3.79,-52.5 -19.76,-22.9 -33.58,-82 -51.05,-157 -42.07,-180.5 -103.66,-444.8 -352.7,-620.7 -67.59,-47.7 -140.16,-77.3 -212.06,-75.3 -64.97,1.8 -127.63,28.9 -183.34,90.7 -13.76,15.3 -12.53,38.8 2.76,52.6 15.28,13.7 38.84,12.5 52.6,-2.8 40.76,-45.1 85.06,-64.9 130.01,-66.2 54.22,-1.5 111.78,22.8 167.17,62 225.75,159.4 283.51,407.2 322.97,576.6 19.79,84.9 35.4,151.8 67.38,188.8 v 0" /><path
         id="path466"
         style="fill:#895737;fill-opacity:1;fill-rule:nonzero;stroke:none"
         d="m 6597.57,14055.1 c 4.98,19.9 25.22,32.1 45.17,27.1 19.96,-5 32.1,-25.2 27.11,-45.2 -30.6,-121.8 -242.36,-441.4 -460.76,-687.8 -168.47,-190 -344.67,-338.8 -455.24,-329.4 -20.52,1.7 -35.78,19.7 -34.1,40.2 1.69,20.6 19.7,35.8 40.22,34.1 83.77,-7.1 238.86,130 393.45,304.4 211.75,238.8 415.79,543.8 444.15,656.6 v 0" /><path
         id="path468"
         style="fill:#895737;fill-opacity:1;fill-rule:nonzero;stroke:none"
         d="m 6602.84,14047.8 c 4.98,19.9 25.22,32.1 45.17,27.1 19.95,-5 32.1,-25.2 27.11,-45.2 -32.6,-129.8 -250.45,-713.4 -464.51,-1126.1 -133.63,-257.6 -270.74,-451.5 -373.83,-442.7 -20.52,1.7 -35.78,19.7 -34.1,40.2 1.69,20.5 19.7,35.8 40.22,34.1 66.32,-5.7 180.97,170.1 301.54,402.5 211.6,408 426.39,982.7 458.4,1110.1 v 0" /><path
         id="path470"
         style="fill:#00203f;fill-opacity:1;fill-rule:evenodd;stroke:none"
         d="m 5500.41,14253 341.04,171.3 -439.91,-1505 -32.86,416.4 131.73,917.3 v 0" /><path
         id="path472"
         style="fill:#000000;fill-opacity:1;fill-rule:evenodd;stroke:none"
         d="m 5326.7,15558.6 -370.67,-37.3 c -31.78,-3.2 -55.15,-31.8 -51.95,-63.5 l 87.62,-871.4 c 3.2,-31.7 31.79,-55.1 63.56,-51.9 l 370.68,37.3 c 31.79,3.2 55.16,31.8 51.95,63.5 l -87.63,871.4 c -3.19,31.7 -31.78,55.1 -63.56,51.9 v 0" /><path
         id="path474"
         style="fill:#666666;fill-opacity:1;fill-rule:evenodd;stroke:none"
         d="m 5302.86,15530.5 -353.19,-35.5 c -30.28,-3.1 -52.53,-30.3 -49.49,-60.6 l 83.5,-830.2 c 3.04,-30.3 30.28,-52.5 60.56,-49.5 l 353.19,35.5 c 30.28,3.1 52.54,30.3 49.49,60.6 l -83.49,830.2 c -3.04,30.3 -30.3,52.5 -60.57,49.5 v 0" /><path
         id="path476"
         style="fill:#f2ad89;fill-opacity:1;fill-rule:evenodd;stroke:none"
         d="m 4837.01,14910.1 c 67.05,127 72.51,357.8 77.54,347.8 90.19,-180.8 40.43,-211.4 58.01,-208.7 84.27,13 555.31,123.5 541.77,40.4 -0.37,-2.3 73.79,-49.3 12.46,-70.9 -40.33,-14.2 30.1,-26.2 -45.14,-76.9 -1.89,-1.3 -53.26,-132.1 -158.47,-169.2 -102.42,-36.1 -307.36,-182.9 -330.66,-325.9 -51.99,-319.3 14.57,-722.1 128.33,-1010.9 172.54,-438 106.36,-1147.4 -322.52,-1077.5 -873.23,142.2 -234.68,2033.9 38.68,2551.8 v 0" /><path
         id="path478"
         style="fill:#d67a5b;fill-opacity:1;fill-rule:nonzero;stroke:none"
         d="m 5510.69,15107.8 c 10.06,2 19.87,-4.6 21.86,-14.6 2.01,-10.1 -4.52,-19.9 -14.58,-21.9 l -282.55,-57.1 c -10.06,-2 -19.86,4.6 -21.87,14.6 -2,10.1 4.53,19.9 14.58,21.9 l 282.56,57.1 v 0" /><path
         id="path480"
         style="fill:#d67a5b;fill-opacity:1;fill-rule:nonzero;stroke:none"
         d="m 5509.99,15027.6 c 10.1,2 19.91,-4.6 21.87,-14.7 1.95,-10.1 -4.63,-20 -14.74,-21.9 l -288.63,-56.6 c -10.1,-2 -19.91,4.6 -21.86,14.7 -1.95,10.1 4.62,19.9 14.73,21.9 l 288.63,56.6 v 0" /><path
         id="path482"
         style="fill:#d67a5b;fill-opacity:1;fill-rule:nonzero;stroke:none"
         d="m 5476.4,14959.7 c 9.85,2.9 20.2,-2.8 23.1,-12.6 2.89,-9.9 -2.75,-20.2 -12.6,-23.1 l -272.9,-80.9 c -9.85,-2.9 -20.2,2.8 -23.1,12.6 -2.89,9.9 2.75,20.2 12.6,23.1 l 272.9,80.9 v 0" /><path
         id="path484"
         style="fill:#000000;fill-opacity:1;fill-rule:evenodd;stroke:none"
         d="m 5277.44,15487.4 c -22.41,3.7 -43.5,-11.2 -47.1,-33.3 -3.59,-22.1 11.66,-43 34.07,-46.6 22.42,-3.7 43.51,11.3 47.1,33.3 3.6,22.1 -11.66,43 -34.07,46.6 v 0" /><path
         id="path486"
         style="fill:#00203f;fill-opacity:1;fill-rule:nonzero;stroke:none"
         d="m 6294.04,8274 c 4.75,-20 -7.59,-40 -27.55,-44.8 -19.95,-4.7 -39.99,7.6 -44.73,27.6 L 5876.07,9703 c -4.74,20 7.6,40 27.55,44.8 19.95,4.7 39.99,-7.6 44.74,-27.6 L 6294.04,8274 v 0" /><path
         id="path488"
         style="fill:#58ba57;fill-opacity:1;fill-rule:nonzero;stroke:none"
         d="m 5304.17,13682.7 c -0.72,20.5 15.33,37.7 35.84,38.4 20.52,0.8 37.76,-15.3 38.48,-35.8 1.77,-48.3 10.76,-148.3 22.73,-281.9 58.42,-652 187.64,-2093.4 -91.83,-2324.5 -93.61,-77.5 -219.41,-41.5 -387.34,161.6 -13.12,15.8 -10.9,39.3 4.95,52.4 15.85,13.2 39.35,10.9 52.47,-4.9 134.25,-162.4 224.49,-199.6 282.41,-151.7 249.45,206.3 122.65,1620.8 65.32,2260.6 -12.14,135.4 -21.24,236.7 -23.03,285.8 v 0" /><path
         id="path490"
         style="fill:#d6effd;fill-opacity:1;fill-rule:nonzero;stroke:none"
         d="m 6010.11,15963.2 c -38.27,38.9 -91.24,63 -149.73,63 -58.5,0 -111.47,-24.1 -149.75,-63 -38.42,-39.1 -62.21,-93.2 -62.21,-153.1 0,-59.9 23.79,-114 62.21,-153 38.28,-39 91.25,-63 149.75,-63 58.49,0 111.46,24 149.73,63 38.43,39 62.22,93.1 62.22,153 0,59.9 -23.79,114 -62.22,153.1 z m -149.73,137.6 c 79.13,0 150.85,-32.7 202.77,-85.4 51.74,-52.7 83.79,-125.2 83.79,-205.3 0,-80 -32.05,-152.6 -83.79,-205.2 -51.92,-52.8 -123.64,-85.4 -202.77,-85.4 -79.14,0 -150.87,32.6 -202.78,85.4 -51.74,52.6 -83.8,125.2 -83.8,205.2 0,80.1 32.06,152.6 83.8,205.3 51.91,52.7 123.64,85.4 202.78,85.4 v 0" /><path
         id="path492"
         style="fill:#d6effd;fill-opacity:1;fill-rule:nonzero;stroke:none"
         d="m 6614.3,15965.1 c -38.28,38.9 -91.24,63 -149.74,63 -58.51,0 -111.46,-24.1 -149.75,-63 -38.44,-39 -62.22,-93.2 -62.22,-153 0,-59.9 23.8,-114 62.22,-153.1 38.27,-38.9 91.23,-63 149.75,-63 58.5,0 111.46,24.1 149.74,63 38.42,39.1 62.21,93.2 62.21,153.1 0,59.8 -23.79,114 -62.21,153 z m -149.74,137.6 c 79.14,0 150.86,-32.6 202.77,-85.4 51.76,-52.6 83.8,-125.2 83.8,-205.2 0,-80.1 -32.06,-152.7 -83.8,-205.3 -51.91,-52.7 -123.63,-85.4 -202.77,-85.4 -79.15,0 -150.88,32.7 -202.78,85.5 -51.77,52.5 -83.81,125.1 -83.81,205.2 0,80 32.04,152.6 83.81,205.2 51.92,52.8 123.63,85.4 202.78,85.4 v 0" /><path
         id="path494"
         style="fill:#d6effd;fill-opacity:1;fill-rule:nonzero;stroke:none"
         d="m 6129.02,15794.9 c 2.03,5.5 7.91,14.9 12.24,19.8 l -13.94,2.9 1.7,-22.7 z m 65.78,-39.7 c -8.3,6 -13.86,10.9 -19.42,15.8 -9.36,8.3 -18.86,16.6 -28.02,19.1 l -1.72,0.3 c -3.86,0.4 -10.48,0.7 -16.3,0.3 -1.38,-0.1 -1.29,1.6 -0.32,4.2 l -1.7,22.7 -12.59,2.5 -42.19,6.2 0.49,2.3 c 5.1,25.1 26.82,34.6 50.75,36.4 11.29,0.8 24.11,0.2 31.09,-0.7 l 5.85,-1 c 29.4,-6 46.8,-21.3 63.9,-36.3 5.34,-4.7 10.68,-9.4 13.91,-11.8 l -43.73,-60 v 0" /><path
         id="path496"
         style="fill:#d6effd;fill-opacity:1;fill-rule:evenodd;stroke:none"
         d="m 12908.3,7333 c 276.2,150.9 88.3,-43 211.2,-43.4 156.6,-0.5 107.3,209.9 197.8,57 25.6,-43.2 94.6,111 147,92.8 84.6,-244.1 67.4,119.7 133.7,-72.1 146.5,-50.8 139,252.7 139,-413.5 0,-535 -152.1,268.4 -249.2,-42.4 -85.4,-273.4 -80.3,290.4 -289.7,-12.7 -136.4,-197.5 -47,400 -226.5,0.9 -69,-153.4 -37.3,285 -119.2,35.3 -22.9,-69.8 -38.6,330.7 38.7,369.3 18.2,9.1 4.9,22 17.2,28.8 v 0" /><path
         id="path498"
         style="fill:#d6effd;fill-opacity:1;fill-rule:evenodd;stroke:none"
         d="m 10825,7259.8 c 276.2,150.9 88.3,-43 211.3,-43.4 156.5,-0.5 107.2,209.9 197.7,57 25.6,-43.2 94.6,111 147,92.8 84.6,-244.1 67.4,119.7 133.8,-72.1 146.4,-50.8 138.9,252.6 138.9,-413.5 0,-535 -152,268.4 -249.1,-42.4 -85.4,-273.4 -80.4,290.4 -289.7,-12.7 -136.5,-197.6 -47.1,400 -226.6,0.9 -69,-153.4 -37.3,285 -119.2,35.3 -22.9,-69.8 -38.6,330.6 38.7,369.3 18.3,9.1 4.9,22 17.2,28.8 v 0" /><g
         transform="scale(1.06305)"
         id="g500"><path
           id="path502"
           style="fill:#58ba57;fill-opacity:1;fill-rule:evenodd;stroke:none"
           d="m 5687.73,15856.8 c 824.75,-34.2 624.21,-910.4 1348.16,-818.1 415.58,53 227.68,306 17.33,568 -170.32,212.1 -284,404.2 -472.74,528.7 10.07,17 22.13,35.7 31.66,51.4 22.22,36.6 21.9,47.8 -7.33,71.9 -30.85,25.5 -48.33,-5.1 -65.13,-26.3 -10.69,-13.5 -26.66,-33.5 -37.95,-50.4 -153.81,80.7 -336.35,118 -575.76,90.4 -216.64,-25 -541.25,-69.7 -429.5,-347.2 10.2,-25.4 21.93,-48.3 33.38,-69 9.88,-48.2 52.3,0 157.88,0.6 v 0" /></g><path
         id="path504"
         style="fill:#d55147;fill-opacity:1;fill-rule:evenodd;stroke:none"
         d="m 6916.57,13556.7 c 106.19,0 192.28,-86.1 192.28,-192.3 0,-106.2 -86.09,-192.2 -192.28,-192.2 -106.18,0 -192.27,86 -192.27,192.2 0,106.2 86.09,192.3 192.27,192.3 v 0" /><path
         id="path506"
         style="fill:#f9c754;fill-opacity:1;fill-rule:evenodd;stroke:none"
         d="m 6846.83,13894.4 c 70.66,0 127.94,-57.3 127.94,-127.9 0,-70.7 -57.28,-128 -127.94,-128 -70.66,0 -127.95,57.3 -127.95,128 0,70.6 57.29,127.9 127.95,127.9 v 0" /></g></g></svg>